<?xml version="1.0" encoding="UTF-8"?>
<svg version="1.1" xmlns="http://www.w3.org/2000/svg" width="1024" height="777">
<path d="M0 0 C337.92 0 675.84 0 1024 0 C1024 256.41 1024 512.82 1024 777 C686.08 777 348.16 777 0 777 C0 520.59 0 264.18 0 0 Z " fill="#F3F5F8" transform="translate(0,0)"/>
<path d="M0 0 C6.27171118 3.66835937 8.49258067 9.12601085 10.5859375 15.89453125 C12.54283268 25.84515865 10.93868175 34.65497666 5.64453125 43.18359375 C-1.27405094 52.99573847 -11.16822067 59.59353641 -23 62 C-25.18635817 62.16205419 -27.37407398 62.30629346 -29.5625 62.4375 C-34.41650641 62.74401016 -37.81491966 63.35679136 -42 66 C-43.485 66.495 -43.485 66.495 -45 67 C-46.11935073 68.64630193 -46.11935073 68.64630193 -47 71 C-47.53625 72.134375 -48.0725 73.26875 -48.625 74.4375 C-50.07980423 78.28389362 -50.14257469 81.68925745 -50.0859375 85.78515625 C-50.07353027 86.95054932 -50.06112305 88.11594238 -50.04833984 89.31665039 C-50.0323877 90.20215576 -50.01643555 91.08766113 -50 92 C-49.3981444 92.00146656 -48.7962888 92.00293312 -48.17619514 92.00444412 C-33.4488165 92.04169357 -18.72163596 92.10094508 -3.99444771 92.18390274 C3.12789095 92.22350639 10.2501221 92.25599269 17.37255859 92.27099609 C23.58931416 92.28411054 29.80583131 92.31131996 36.02245247 92.35461307 C39.30617236 92.37701125 42.5895427 92.39081875 45.87334824 92.39188385 C80.54701648 92.41442058 110.47797761 100.73899378 136 125.4375 C163.91124779 153.48673254 173.63716561 195.03498274 184 232 C184.44835205 233.59038086 184.44835205 233.59038086 184.90576172 235.21289062 C191.6282005 259.27897805 197.27905175 284.13909746 200 309 C200.1381311 310.20982544 200.1381311 310.20982544 200.27905273 311.4440918 C203.03749095 338.06438372 203.93680296 368.38236319 186.38671875 390.41796875 C177.6233046 400.71580239 167.80958075 406.79316352 155 411 C153.93007813 411.36609375 152.86015625 411.7321875 151.7578125 412.109375 C133.70340818 416.38838143 115.90628838 412.03768326 100.1328125 402.98828125 C77.108129 388.37535868 58.58897983 366.71284694 39.49565125 347.50183105 C38.06381057 346.06407422 36.62698879 344.63128317 35.18994141 343.19873047 C33.92225849 341.92595986 32.67199368 340.63424359 31.47265625 339.296875 C20.91240573 327.71277748 5.18104031 320.00536218 -10.41355133 318.81591034 C-12.88363807 318.7433048 -15.34627163 318.72942846 -17.81738281 318.74121094 C-18.74245132 318.7377063 -19.66751984 318.73420166 -20.62062073 318.73059082 C-23.64820082 318.72186142 -26.67554294 318.72759338 -29.703125 318.734375 C-31.83005823 318.73302537 -33.95699116 318.73108236 -36.08392334 318.72857666 C-40.53205312 318.72563688 -44.98010229 318.72988437 -49.42822266 318.73925781 C-55.09441208 318.75062368 -60.76041139 318.74410366 -66.42659378 318.73211288 C-70.81755978 318.72483942 -75.20848173 318.72720772 -79.59944916 318.73236847 C-81.68677544 318.73369129 -83.77410589 318.73210589 -85.86142731 318.72740936 C-109.75465298 318.68545467 -130.12854406 320.97531871 -148.03125 338.60888672 C-150.20518236 340.78212325 -152.35322343 342.97967531 -154.5 345.1796875 C-155.66757651 346.35984858 -156.83621866 347.53895622 -158.00585938 348.71707153 C-161.06142935 351.79902519 -164.10561946 354.8919471 -167.14648438 357.98840332 C-172.00850246 362.93719741 -176.88421587 367.87239538 -181.7668457 372.8008461 C-183.45050887 374.50460564 -185.12697419 376.21519924 -186.80273438 377.92672729 C-205.56854035 396.98820847 -226.67491098 413.20928067 -254.4375 413.5625 C-271.54033447 413.41458509 -286.12462473 407.3336741 -298.8125 395.8125 C-317.20295655 375.55971874 -319.22615663 350.19888001 -318 324 C-317.35697875 315.6197824 -316.21096806 307.31387236 -315 299 C-314.78066258 297.38679851 -314.56187253 295.77352246 -314.34375 294.16015625 C-306.46192776 238.25184357 -291.55756357 165.566772 -251 124 C-250.11248047 123.01966797 -250.11248047 123.01966797 -249.20703125 122.01953125 C-234.45437353 106.10123144 -208.81649673 94.32882916 -187.25764275 92.80633354 C-184.27837333 92.72382616 -181.30438576 92.6987134 -178.32397461 92.69702148 C-176.64170273 92.68436249 -176.64170273 92.68436249 -174.92544556 92.67144775 C-171.25107359 92.64583816 -167.5767816 92.63357316 -163.90234375 92.62109375 C-161.34069694 92.60490893 -158.77905625 92.5877279 -156.21742249 92.56959534 C-150.18408396 92.52869775 -144.15075845 92.49562831 -138.11735302 92.46712118 C-126.64696806 92.41285533 -115.17668483 92.34509256 -103.70642281 92.26918221 C-99.93441199 92.24628838 -96.16241275 92.23006349 -92.3903656 92.21446228 C-90.09740059 92.20106473 -87.80443683 92.18745073 -85.51147461 92.17358398 C-84.4554454 92.17097061 -83.3994162 92.16835724 -82.31138611 92.16566467 C-80.87955994 92.15531693 -80.87955994 92.15531693 -79.41880798 92.14476013 C-78.16759863 92.13897776 -78.16759863 92.13897776 -76.89111233 92.13307858 C-74.98830005 92.20687529 -74.98830005 92.20687529 -74 91 C-73.90457989 89.29516075 -73.81559019 87.58969084 -73.76098633 85.88305664 C-73.25715046 71.25842547 -69.56135873 59.12716933 -58.875 48.75 C-50.70832918 41.92858777 -42.05655708 39.75287831 -31.73901367 38.73242188 C-24.9572245 38.01638844 -19.75942297 36.27652395 -14.5 31.9375 C-11.58296961 28.16966909 -11.68751549 24.60914647 -12 20 C-12.495 19.01 -12.99 18.02 -13.5 17 C-15.32924879 13.34150243 -15.44145377 11.04665959 -15 7 C-11.76559064 0.0691228 -7.15953478 -1.15239087 0 0 Z " fill="#324259" transform="translate(569,154)"/>
<path d="M0 0 C6.27171118 3.66835937 8.49258067 9.12601085 10.5859375 15.89453125 C12.54283268 25.84515865 10.93868175 34.65497666 5.64453125 43.18359375 C-1.27405094 52.99573847 -11.16822067 59.59353641 -23 62 C-25.18635817 62.16205419 -27.37407398 62.30629346 -29.5625 62.4375 C-34.41650641 62.74401016 -37.81491966 63.35679136 -42 66 C-43.485 66.495 -43.485 66.495 -45 67 C-46.11935073 68.64630193 -46.11935073 68.64630193 -47 71 C-47.53625 72.134375 -48.0725 73.26875 -48.625 74.4375 C-50.07980423 78.28389362 -50.14257469 81.68925745 -50.0859375 85.78515625 C-50.07353027 86.95054932 -50.06112305 88.11594238 -50.04833984 89.31665039 C-50.0323877 90.20215576 -50.01643555 91.08766113 -50 92 C-49.3981444 92.00146656 -48.7962888 92.00293312 -48.17619514 92.00444412 C-33.4488165 92.04169357 -18.72163596 92.10094508 -3.99444771 92.18390274 C3.12789095 92.22350639 10.2501221 92.25599269 17.37255859 92.27099609 C23.58931416 92.28411054 29.80583131 92.31131996 36.02245247 92.35461307 C39.30617236 92.37701125 42.5895427 92.39081875 45.87334824 92.39188385 C80.54701648 92.41442058 110.47797761 100.73899378 136 125.4375 C163.91124779 153.48673254 173.63716561 195.03498274 184 232 C184.44835205 233.59038086 184.44835205 233.59038086 184.90576172 235.21289062 C191.6282005 259.27897805 197.27905175 284.13909746 200 309 C200.1381311 310.20982544 200.1381311 310.20982544 200.27905273 311.4440918 C203.03749095 338.06438372 203.93680296 368.38236319 186.38671875 390.41796875 C177.6233046 400.71580239 167.80958075 406.79316352 155 411 C153.93007813 411.36609375 152.86015625 411.7321875 151.7578125 412.109375 C133.70340818 416.38838143 115.90628838 412.03768326 100.1328125 402.98828125 C77.108129 388.37535868 58.58897983 366.71284694 39.49565125 347.50183105 C38.06381057 346.06407422 36.62698879 344.63128317 35.18994141 343.19873047 C33.92225849 341.92595986 32.67199368 340.63424359 31.47265625 339.296875 C20.91240573 327.71277748 5.18104031 320.00536218 -10.41355133 318.81591034 C-12.88363807 318.7433048 -15.34627163 318.72942846 -17.81738281 318.74121094 C-18.74245132 318.7377063 -19.66751984 318.73420166 -20.62062073 318.73059082 C-23.64820082 318.72186142 -26.67554294 318.72759338 -29.703125 318.734375 C-31.83005823 318.73302537 -33.95699116 318.73108236 -36.08392334 318.72857666 C-40.53205312 318.72563688 -44.98010229 318.72988437 -49.42822266 318.73925781 C-55.09441208 318.75062368 -60.76041139 318.74410366 -66.42659378 318.73211288 C-70.81755978 318.72483942 -75.20848173 318.72720772 -79.59944916 318.73236847 C-81.68677544 318.73369129 -83.77410589 318.73210589 -85.86142731 318.72740936 C-109.75465298 318.68545467 -130.12854406 320.97531871 -148.03125 338.60888672 C-150.20518236 340.78212325 -152.35322343 342.97967531 -154.5 345.1796875 C-155.66757651 346.35984858 -156.83621866 347.53895622 -158.00585938 348.71707153 C-161.06142935 351.79902519 -164.10561946 354.8919471 -167.14648438 357.98840332 C-172.00850246 362.93719741 -176.88421587 367.87239538 -181.7668457 372.8008461 C-183.45050887 374.50460564 -185.12697419 376.21519924 -186.80273438 377.92672729 C-205.56854035 396.98820847 -226.67491098 413.20928067 -254.4375 413.5625 C-271.54033447 413.41458509 -286.12462473 407.3336741 -298.8125 395.8125 C-317.20295655 375.55971874 -319.22615663 350.19888001 -318 324 C-317.35697875 315.6197824 -316.21096806 307.31387236 -315 299 C-314.78066258 297.38679851 -314.56187253 295.77352246 -314.34375 294.16015625 C-306.46192776 238.25184357 -291.55756357 165.566772 -251 124 C-250.11248047 123.01966797 -250.11248047 123.01966797 -249.20703125 122.01953125 C-234.45437353 106.10123144 -208.81649673 94.32882916 -187.25764275 92.80633354 C-184.27837333 92.72382616 -181.30438576 92.6987134 -178.32397461 92.69702148 C-176.64170273 92.68436249 -176.64170273 92.68436249 -174.92544556 92.67144775 C-171.25107359 92.64583816 -167.5767816 92.63357316 -163.90234375 92.62109375 C-161.34069694 92.60490893 -158.77905625 92.5877279 -156.21742249 92.56959534 C-150.18408396 92.52869775 -144.15075845 92.49562831 -138.11735302 92.46712118 C-126.64696806 92.41285533 -115.17668483 92.34509256 -103.70642281 92.26918221 C-99.93441199 92.24628838 -96.16241275 92.23006349 -92.3903656 92.21446228 C-90.09740059 92.20106473 -87.80443683 92.18745073 -85.51147461 92.17358398 C-84.4554454 92.17097061 -83.3994162 92.16835724 -82.31138611 92.16566467 C-80.87955994 92.15531693 -80.87955994 92.15531693 -79.41880798 92.14476013 C-78.16759863 92.13897776 -78.16759863 92.13897776 -76.89111233 92.13307858 C-74.98830005 92.20687529 -74.98830005 92.20687529 -74 91 C-73.90457989 89.29516075 -73.81559019 87.58969084 -73.76098633 85.88305664 C-73.25715046 71.25842547 -69.56135873 59.12716933 -58.875 48.75 C-50.70832918 41.92858777 -42.05655708 39.75287831 -31.73901367 38.73242188 C-24.9572245 38.01638844 -19.75942297 36.27652395 -14.5 31.9375 C-11.58296961 28.16966909 -11.68751549 24.60914647 -12 20 C-12.495 19.01 -12.99 18.02 -13.5 17 C-15.32924879 13.34150243 -15.44145377 11.04665959 -15 7 C-11.76559064 0.0691228 -7.15953478 -1.15239087 0 0 Z M-213.375 122.75 C-214.03016602 123.09579102 -214.68533203 123.44158203 -215.36035156 123.79785156 C-252.01108259 143.62411754 -264.35922397 181.49710124 -275.61126709 219.03948975 C-285.45745675 252.43861133 -296.26599795 290.2582496 -296.4375 325.1875 C-296.47037109 326.38052734 -296.50324219 327.57355469 -296.53710938 328.80273438 C-296.59916109 339.06383082 -293.69388677 346.86351034 -286.734375 354.46875 C-277.24757317 362.84448495 -266.31228244 363.77750298 -254.26269531 363.18212891 C-228.55038993 361.11249362 -206.682944 339.11807139 -188.69921875 322.48828125 C-185.19091468 319.25414276 -181.6244934 316.10283734 -178 313 C-177.15566406 312.26523437 -176.31132812 311.53046875 -175.44140625 310.7734375 C-157.88804251 295.76852684 -138.9330259 283.29644789 -117 275.75 C-115.95199219 275.38068359 -115.95199219 275.38068359 -114.8828125 275.00390625 C-102.74709554 270.98089385 -90.31986171 270.6865511 -77.66796875 270.69921875 C-76.02093908 270.69531793 -74.37391039 270.6909805 -72.72688293 270.68623352 C-69.2937187 270.67882418 -65.8606574 270.67902358 -62.42749023 270.68432617 C-58.07417856 270.6901107 -53.72129376 270.67318842 -49.36805248 270.6499815 C-45.97123337 270.63509673 -42.57451358 270.6343923 -39.17766762 270.63749123 C-37.57484404 270.63698528 -35.97201379 270.63188794 -34.36922264 270.62167931 C-4.57297724 270.4551473 21.28443921 281.28182749 45 299 C45.53286621 299.39155273 46.06573242 299.78310547 46.61474609 300.18652344 C53.2123327 305.04131441 59.43058712 310.16303631 65.41479492 315.75561523 C70.291811 320.31094731 75.34522501 324.64055634 80.43359375 328.95703125 C82.80467884 330.96950833 85.1481184 333.00818158 87.47265625 335.07421875 C106.05994373 351.51409638 125.73939467 364.05658096 151.30859375 363.44921875 C159.13372557 362.94980929 164.9542664 359.46250802 170.9375 354.625 C181.55961136 341.10594917 181.01279608 326.84087065 179.375 310.3125 C177.05895711 291.35745735 172.65988815 272.3718861 167.76757812 253.93164062 C167.03219861 251.1229774 166.32063009 248.30893329 165.61430359 245.49284363 C151.52233268 187.70146715 151.52233268 187.70146715 119 139 C118.10087891 138.08154297 118.10087891 138.08154297 117.18359375 137.14453125 C100.59332568 121.4858981 78.85382848 114.84851844 56.47157288 114.85282898 C55.43542624 114.84915229 54.39927961 114.8454756 53.3317346 114.8416875 C49.87227434 114.83070637 46.41284417 114.8268163 42.95336914 114.82299805 C40.46748765 114.81672915 37.98160709 114.81008197 35.49572754 114.80308533 C28.04619099 114.78390432 20.59666243 114.77326406 13.14710847 114.76435754 C9.63024649 114.75996338 6.113386 114.75459955 2.59652519 114.74936867 C-9.10893281 114.73236405 -20.81438992 114.71787246 -32.51985836 114.71061993 C-35.5523828 114.70871036 -38.58490723 114.70678997 -41.61743164 114.70483398 C-42.37105512 114.70435024 -43.1246786 114.7038665 -43.90113915 114.7033681 C-56.09476172 114.69507719 -68.28828591 114.66975275 -80.48186558 114.63725331 C-93.02873056 114.60408753 -105.57554569 114.58616263 -118.1224547 114.58297569 C-125.15574891 114.58081946 -132.18889959 114.5722018 -139.2221508 114.54651451 C-145.84520308 114.52237966 -152.46804501 114.51904115 -159.09114838 114.52927589 C-161.51092194 114.52976892 -163.93070861 114.5235179 -166.35044289 114.50971985 C-182.55174047 114.42256525 -198.79609161 114.74095105 -213.375 122.75 Z " fill="#121D2B" transform="translate(569,154)"/>
<path d="M0 0 C1.64702967 -0.00390082 3.29405836 -0.00823825 4.94108582 -0.01298523 C8.37425005 -0.02039457 11.80731135 -0.02019517 15.24047852 -0.01489258 C19.59379019 -0.00910805 23.94667499 -0.02603033 28.29991627 -0.04923725 C31.69673538 -0.06412202 35.09345517 -0.06482645 38.49030113 -0.06172752 C40.09312471 -0.06223347 41.69595496 -0.06733081 43.29874611 -0.07753944 C73.09499151 -0.24407145 98.95240796 10.58260874 122.66796875 28.30078125 C123.20083496 28.69233398 123.73370117 29.08388672 124.28271484 29.48730469 C130.88030145 34.34209566 137.09855587 39.46381756 143.08276367 45.05639648 C147.95977975 49.61172856 153.01319376 53.94133759 158.1015625 58.2578125 C160.47264759 60.27028958 162.81608715 62.30896283 165.140625 64.375 C183.74698039 80.8317426 203.38889584 93.30396375 228.96875 92.765625 C235.48601688 92.3547681 240.17505954 89.74338581 245.66796875 86.30078125 C247.15296875 85.80578125 247.15296875 85.80578125 248.66796875 85.30078125 C249.76580917 83.50258939 249.76580917 83.50258939 250.66796875 81.30078125 C251.08175781 80.51960938 251.49554687 79.7384375 251.921875 78.93359375 C254.28883355 74.39751199 256.25822474 70.49087202 256.66796875 65.30078125 C256.99796875 65.30078125 257.32796875 65.30078125 257.66796875 65.30078125 C258.41593342 80.92493206 257.01945178 95.74424858 246.66796875 108.30078125 C239.55568119 115.98517238 231.3192078 120.89505567 220.76171875 121.5390625 C196.93264656 122.11930743 180.47606213 110.2130193 163.71191406 94.27441406 C159.21523975 89.93242707 154.78240127 85.5261173 150.35546875 81.11328125 C149.87961334 80.64010468 149.40375793 80.1669281 148.91348267 79.67941284 C143.84174315 74.62931333 138.89793355 69.53441861 134.23510742 64.10375977 C118.61607262 46.13420501 97.74441507 29.95183092 73.11053276 28.10951614 C70.27838035 28.02870442 67.45220257 28.00765938 64.61889648 28.01025391 C63.55088303 28.00353668 62.48286957 27.99681946 61.38249207 27.98989868 C57.87213407 27.9709936 54.36196816 27.96699779 50.8515625 27.96484375 C48.39168726 27.95840905 45.93181276 27.9516802 43.47193909 27.94467163 C38.32006051 27.93271639 33.16824889 27.92898885 28.01635742 27.93017578 C21.45229936 27.9303785 14.88867653 27.90311673 8.32472134 27.86863136 C3.24310888 27.84626171 -1.83840067 27.84234137 -6.9200573 27.84339523 C-9.33788485 27.84105286 -11.75571583 27.83230732 -14.17349434 27.8167305 C-27.52493882 27.73878636 -39.57132508 28.12132166 -52.33203125 32.30078125 C-53.37641861 32.62188873 -54.42080597 32.94299622 -55.49684143 33.27383423 C-67.96356324 37.22639408 -77.13566094 45.39468375 -86.33203125 54.30078125 C-87.01394531 54.95433594 -87.69585937 55.60789062 -88.3984375 56.28125 C-91.26835027 59.0869589 -93.96039706 61.99686551 -96.57519531 65.04125977 C-100.11529064 69.10195393 -103.82394287 72.95393337 -107.62890625 76.765625 C-108.64032684 77.78203819 -108.64032684 77.78203819 -109.67218018 78.81898499 C-111.08939199 80.24122186 -112.50792692 81.66214144 -113.92773438 83.08178711 C-116.06801047 85.22424617 -118.20015106 87.37458115 -120.33203125 89.52539062 C-136.0140773 105.27347331 -152.4619693 121.169487 -176.01953125 121.73828125 C-188.45373973 121.34253129 -198.95661743 117.22499575 -207.64453125 108.11328125 C-220.93637241 92.03444114 -219.76424789 71.95223107 -219.33203125 52.30078125 C-219.00203125 52.30078125 -218.67203125 52.30078125 -218.33203125 52.30078125 C-218.31785156 53.41195312 -218.30367188 54.523125 -218.2890625 55.66796875 C-218.05255733 64.57800047 -217.5158255 71.7312635 -212.33203125 79.30078125 C-211.77515625 80.17089844 -211.77515625 80.17089844 -211.20703125 81.05859375 C-206.81502087 87.12810809 -199.37365461 90.38573085 -192.33203125 92.30078125 C-170.72382986 94.76003016 -152.89619674 86.19986968 -136.03515625 73.453125 C-127.75344114 66.85886918 -119.77517388 59.96041465 -112.11352539 52.65307617 C-108.5463004 49.30078125 -108.5463004 49.30078125 -106.33203125 49.30078125 C-106.00203125 48.31078125 -105.67203125 47.32078125 -105.33203125 46.30078125 C-101.89086449 43.04295535 -98.06280019 40.21914816 -94.33203125 37.30078125 C-93.37804443 36.54450439 -93.37804443 36.54450439 -92.40478516 35.77294922 C-75.90512301 22.70789436 -59.33896673 11.97123376 -39.33203125 5.05078125 C-38.63287598 4.80424805 -37.9337207 4.55771484 -37.21337891 4.30371094 C-25.07706597 0.28329662 -12.65188982 -0.01266765 0 0 Z " fill="#213044" transform="translate(491.33203125,423.69921875)"/>
<path d="M0 0 C8.66290738 4.67341056 13.87816519 11.00949557 17 20.375 C17.12040604 22.49750645 17.17533819 24.62411587 17.1875 26.75 C17.20167969 27.87148438 17.21585938 28.99296875 17.23046875 30.1484375 C17.00365368 33.32384842 16.35390668 35.51734718 15 38.375 C15.85078125 38.05273438 16.7015625 37.73046875 17.578125 37.3984375 C25.77103219 34.94804745 34.97880819 35.34553509 42.75 38.98828125 C48.8530576 42.74971432 53.76189513 47.96032808 56.375 54.69140625 C58.26618076 62.81166366 58.33852683 71.91760801 54.32421875 79.3828125 C49.50015989 86.64024619 44.52698825 91.33105796 36.12890625 93.9609375 C29.53130477 95.24414072 22.1740756 95.1190336 16 92.375 C16.15726563 93.08398438 16.31453125 93.79296875 16.4765625 94.5234375 C18.24798788 104.17373992 17.09056503 111.95166174 12 120.375 C7.91946535 125.44809713 2.18507313 129.31330896 -4 131.375 C-22.54629345 132.55963236 -22.54629345 132.55963236 -29 127.375 C-29.91458984 126.68083984 -29.91458984 126.68083984 -30.84765625 125.97265625 C-37.038716 120.59655553 -40.44510813 113.20718341 -41.375 105.109375 C-41.47607603 99.97976668 -41.12948845 96.0872415 -39 91.375 C-39.845625 91.87 -40.69125 92.365 -41.5625 92.875 C-48.40749366 95.76881846 -56.84831666 95.52700865 -63.9140625 93.56640625 C-71.34641109 90.2414082 -77.48911358 84.19352633 -81 76.8125 C-83.17772242 69.6159206 -83.44627026 60.45952151 -80.93359375 53.36328125 C-76.51881984 45.50811132 -69.7631509 38.9780782 -61 36.375 C-58.08865136 36.00211623 -55.24350899 35.99816705 -52.3125 36.0625 C-51.56677734 36.05927734 -50.82105469 36.05605469 -50.05273438 36.05273438 C-46.2362255 36.09018451 -43.23307995 36.23383096 -40 38.375 C-40.2475 36.9828125 -40.2475 36.9828125 -40.5 35.5625 C-42.04954196 23.91745741 -40.29030682 16.93664573 -33.875 7.125 C-24.50664826 -1.8360321 -12.376998 -4.98459305 0 0 Z " fill="#131E2D" transform="translate(646,296.625)"/>
<path d="M0 0 C1.42602539 -0.0299707 1.42602539 -0.0299707 2.88085938 -0.06054688 C9.74796192 -0.05581421 15.42237141 1.06175785 20.58520508 5.84960938 C26.17023656 12.14953295 26.33493636 17.72605969 26.1875 25.75 C26.17847656 26.68134766 26.16945313 27.61269531 26.16015625 28.57226562 C26.13668263 30.8609436 26.10384729 33.14908672 26.0625 35.4375 C26.62122803 35.41655273 27.17995605 35.39560547 27.75561523 35.37402344 C30.33688673 35.28983706 32.91786824 35.23852307 35.5 35.1875 C36.37849609 35.15398437 37.25699219 35.12046875 38.16210938 35.0859375 C45.03986833 34.98442076 51.35569709 36.14641862 56.65380859 40.8503418 C62.47689726 47.44540686 62.42740017 53.89239226 62.4375 62.25 C62.46199219 63.30509766 62.48648438 64.36019531 62.51171875 65.44726562 C62.54051192 73.14943989 61.37521504 78.60898942 56.28125 84.49609375 C55.7140625 84.95113281 55.146875 85.40617187 54.5625 85.875 C53.9953125 86.34808594 53.428125 86.82117188 52.84375 87.30859375 C49.4316347 89.47109665 46.04081266 89.55931898 42.078125 89.53515625 C41.14355469 89.53193359 40.20898438 89.52871094 39.24609375 89.52539062 C38.27800781 89.51701172 37.30992187 89.50863281 36.3125 89.5 C35.32894531 89.49548828 34.34539062 89.49097656 33.33203125 89.48632812 C30.90879209 89.47456483 28.48567727 89.45812684 26.0625 89.4375 C26.09730469 90.72785156 26.13210938 92.01820313 26.16796875 93.34765625 C26.19612342 95.06509106 26.22342177 96.78254007 26.25 98.5 C26.27513672 99.34755859 26.30027344 100.19511719 26.32617188 101.06835938 C26.40562109 107.92747501 25.00464921 112.22548401 21.4375 118.125 C16.05419145 123.36664254 9.55487193 124.94137949 2.19726562 124.984375 C1.30716797 124.96890625 0.41707031 124.9534375 -0.5 124.9375 C-1.39396484 124.95296875 -2.28792969 124.9684375 -3.20898438 124.984375 C-9.83793541 124.94558085 -15.4440821 123.66527616 -20.42724609 119.06103516 C-26.21045091 112.50929814 -27.37200018 106.97317275 -27.125 98.5625 C-27.11146484 97.68335938 -27.09792969 96.80421875 -27.08398438 95.8984375 C-27.04886623 93.74452448 -26.99506694 91.59092996 -26.9375 89.4375 C-27.82888672 89.47677612 -27.82888672 89.47677612 -28.73828125 89.5168457 C-31.47107742 89.62176935 -34.20344858 89.68612029 -36.9375 89.75 C-37.87207031 89.79189453 -38.80664062 89.83378906 -39.76953125 89.87695312 C-46.47587807 89.99419695 -50.76269765 88.77088975 -55.9375 84.4375 C-61.84829105 78.69246668 -62.10779126 73.80522384 -62.22070312 65.89648438 C-62.23037109 64.81689453 -62.24003906 63.73730469 -62.25 62.625 C-62.29350586 61.02301758 -62.29350586 61.02301758 -62.33789062 59.38867188 C-62.3997989 51.68823508 -61.45728073 47.3194953 -56.19140625 41.51171875 C-55.63324219 41.05410156 -55.07507813 40.59648437 -54.5 40.125 C-53.94441406 39.65449219 -53.38882812 39.18398438 -52.81640625 38.69921875 C-47.38304234 35.05061887 -42.46202854 35.18963442 -36.125 35.3125 C-35.24134766 35.32152344 -34.35769531 35.33054687 -33.44726562 35.33984375 C-31.27722641 35.36330363 -29.10732753 35.39917135 -26.9375 35.4375 C-26.96070313 34.45910156 -26.98390625 33.48070312 -27.0078125 32.47265625 C-27.27110314 13.34647219 -27.27110314 13.34647219 -20.08203125 5.1640625 C-13.82694078 0.12808803 -7.74102473 -0.05749579 0 0 Z " fill="#121D2C" transform="translate(395.9375,300.5625)"/>
<path d="M0 0 C8.91 0 17.82 0 27 0 C31.49967007 10.12425767 31.49967007 10.12425767 32.98291016 14.34863281 C33.31650543 15.29281067 33.65010071 16.23698853 33.99380493 17.20977783 C34.33873993 18.1975824 34.68367493 19.18538696 35.0390625 20.203125 C35.40599213 21.24394226 35.77292175 22.28475952 36.15097046 23.3571167 C37.31243632 26.65354049 38.46894574 29.95167492 39.625 33.25 C40.78911134 36.5622771 41.95426505 39.87418342 43.12045288 43.18572998 C43.84307548 45.23866002 44.56434653 47.29206644 45.28408813 49.3460083 C45.61137909 50.27757751 45.93867004 51.20914673 46.27587891 52.16894531 C46.56137604 52.98341125 46.84687317 53.7978772 47.14102173 54.63702393 C48.04149765 57.11415649 49.00871483 59.55794694 50 62 C51.70841718 58.76565566 52.99446154 55.46514769 54.25 52.03125 C54.68916748 50.83258301 55.12833496 49.63391602 55.58081055 48.39892578 C56.05399258 47.09932713 56.52705299 45.7996842 57 44.5 C57.48664801 43.1677742 57.97338416 41.83558059 58.46020508 40.50341797 C63.37795021 27.02761714 68.19288584 13.5156543 73 0 C82.24 0 91.48 0 101 0 C101 37.29 101 74.58 101 113 C93.74 113 86.48 113 79 113 C78.67 90.89 78.34 68.78 78 46 C71.73 63.16 65.46 80.32 59 98 C53.39 98 47.78 98 42 98 C39.45413514 91.21925625 36.90898503 84.43824481 34.36450195 77.65698242 C33.49848847 75.34929113 32.63227843 73.04167358 31.76586914 70.73413086 C30.52178301 67.42060323 29.27839999 64.10681252 28.03515625 60.79296875 C27.64658951 59.7585112 27.25802277 58.72405365 26.85768127 57.6582489 C26.49738327 56.6974794 26.13708527 55.7367099 25.76586914 54.74682617 C25.28954796 53.47774666 25.28954796 53.47774666 24.80360413 52.18302917 C24.17167189 50.46635493 23.57847289 48.73541866 23 47 C22.67 68.78 22.34 90.56 22 113 C14.74 113 7.48 113 0 113 C0 75.71 0 38.42 0 0 Z " fill="#131F2D" transform="translate(272,623)"/>
<path d="M0 0 C52.760181 0 52.760181 0 64 9 C68.92485154 13.94571956 71.1791984 19.35865891 73 26 C73.495 27.485 73.495 27.485 74 29 C74.98752974 41.01224695 73.51728674 52.8885111 65.5859375 62.41015625 C63.22684613 64.77505819 60.93662608 66.39820395 58 68 C57.34 68 56.68 68 56 68 C57.26960702 70.83388827 58.54041843 73.66722224 59.8125 76.5 C60.20687256 77.37825439 60.60124512 78.25650879 61.00756836 79.16137695 C64.80247827 87.59442825 68.66174779 95.99753971 72.54418945 104.390625 C72.9949585 105.36902344 73.44572754 106.34742188 73.91015625 107.35546875 C74.31371338 108.22840576 74.71727051 109.10134277 75.13305664 110.00073242 C76 112 76 112 76 113 C67.75 113 59.5 113 51 113 C48.57373487 107.64539596 46.15094029 102.28949392 43.73681641 96.92944336 C42.91428478 95.10594303 42.08974937 93.28334518 41.26318359 91.46166992 C40.07643958 88.8452769 38.89690521 86.22573839 37.71875 83.60546875 C37.34689575 82.78974899 36.9750415 81.97402924 36.59191895 81.1335907 C36.25156616 80.37302872 35.91121338 79.61246674 35.56054688 78.82885742 C35.2585437 78.16045334 34.95654053 77.49204926 34.64538574 76.8033905 C34 75 34 75 34 72 C30.37 72 26.74 72 23 72 C23 85.53 23 99.06 23 113 C15.41 113 7.82 113 0 113 C0 75.71 0 38.42 0 0 Z " fill="#141F2D" transform="translate(875,623)"/>
<path d="M0 0 C7.26 0 14.52 0 22 0 C22.89460938 1.80082031 23.78921875 3.60164062 24.7109375 5.45703125 C32.87046996 21.86314528 32.87046996 21.86314528 41.3125 38.125 C46.00766819 47.01451844 50.5040431 56.00808619 55 65 C55.33 43.55 55.66 22.1 56 0 C63.26 0 70.52 0 78 0 C78 37.29 78 74.58 78 113 C70.74 113 63.48 113 56 113 C48.17667836 98.89743336 40.6733362 84.66015685 33.3125 70.3125 C32.85967651 69.43149628 32.40685303 68.55049255 31.94030762 67.64279175 C30.64114869 65.11346855 29.34530191 62.58248095 28.05078125 60.05078125 C27.65649429 59.28289276 27.26220734 58.51500427 26.85597229 57.72384644 C25.38773721 54.84301027 24.02413122 52.07239365 23 49 C22.67 70.12 22.34 91.24 22 113 C14.74 113 7.48 113 0 113 C0 75.71 0 38.42 0 0 Z " fill="#15202E" transform="translate(430,623)"/>
<path d="M0 0 C8.91 0 17.82 0 27 0 C30.37511724 9.00031263 30.37511724 9.00031263 31.33436584 12.50131226 C31.55436752 13.29720261 31.7743692 14.09309296 32.0010376 14.9131012 C32.23022888 15.7569487 32.45942017 16.6007962 32.69555664 17.47021484 C33.07178413 18.83775658 33.07178413 18.83775658 33.45561218 20.23292542 C34.27755279 23.22457965 35.09402751 26.21769301 35.91015625 29.2109375 C36.48377348 31.30553385 37.0576247 33.40006612 37.63169861 35.49453735 C38.8318487 39.87655683 40.02931547 44.25929818 41.22485352 48.64257812 C42.7520324 54.24101449 44.28563506 59.83766667 45.82123661 65.43379784 C47.00680987 69.75698648 48.18906463 74.08107728 49.3703289 78.4054451 C49.93426465 80.46844047 50.49918705 82.53116642 51.06514168 84.59360886 C51.85805296 87.4851698 52.64650241 90.37791268 53.43383789 93.27099609 C53.66505341 94.11079514 53.89626892 94.95059418 54.13449097 95.81584167 C55.68388946 101.53404212 56.83189251 107.15946254 58 113 C50.08 113 42.16 113 34 113 C32.33333333 106.33333333 30.66666667 99.66666667 29 93 C18.77 92.67 8.54 92.34 -2 92 C-3.27313324 97.78830779 -3.27313324 97.78830779 -4.54272461 103.57739258 C-4.78261108 104.66250122 -4.78261108 104.66250122 -5.02734375 105.76953125 C-5.18968506 106.50792236 -5.35202637 107.24631348 -5.51928711 108.00708008 C-6 110 -6 110 -7 113 C-14.92 113 -22.84 113 -31 113 C-28.43695365 102.63714083 -25.77408092 92.31572646 -22.953125 82.01953125 C-22.57430411 80.63217382 -22.19562542 79.24477756 -21.81707764 77.85734558 C-20.82876494 74.23669052 -19.83836387 70.61661 -18.84753418 66.99664307 C-18.06053752 64.1199653 -17.27507542 61.24286966 -16.48967743 58.36575508 C-14.37816957 50.63077781 -12.26150639 42.89722475 -10.14135742 35.16461182 C-9.37027505 32.3520354 -8.60033913 29.53914864 -7.83129883 26.72601318 C-6.8942185 23.29834417 -5.95509774 19.87124069 -5.01442719 16.44455528 C-4.49549378 14.55226341 -3.97859004 12.65941529 -3.46173096 10.76655579 C-3.15177185 9.63920517 -2.84181274 8.51185455 -2.52246094 7.3503418 C-2.25141541 6.361082 -1.98036987 5.3718222 -1.70111084 4.35258484 C-1 2 -1 2 0 0 Z " fill="#131F2C" transform="translate(204,623)"/>
<path d="M0 0 C8.91 0 17.82 0 27 0 C27.87192706 3.16600797 28.74384945 6.33201722 29.61575317 9.49803162 C30.39677564 12.33403222 31.17785023 15.17001846 31.95895386 18.0059967 C34.11734398 25.84281448 36.27486124 33.67987123 38.4309082 41.51733398 C39.30020674 44.67694431 40.16959998 47.83652855 41.0390625 50.99609375 C41.25438063 51.7785742 41.46969875 52.56105465 41.69154167 53.36724663 C44.35122166 63.03115521 47.0220297 72.69183062 49.7109375 82.34765625 C50.47128589 85.08495689 51.23125879 87.82236143 51.99105835 90.55981445 C52.45309585 92.22016112 52.91696581 93.879999 53.38272095 95.53930664 C54.01351577 97.78670915 54.63830357 100.03569769 55.26171875 102.28515625 C55.60162842 103.50082275 55.94153809 104.71648926 56.29174805 105.96899414 C57 109 57 109 57 113 C49.41 113 41.82 113 34 113 C33.360625 110.64875 32.72125 108.2975 32.0625 105.875 C31.86277588 105.14651855 31.66305176 104.41803711 31.45727539 103.66748047 C30.40636129 99.76348019 29.66815582 96.00893491 29 92 C18.44 92 7.88 92 -3 92 C-3.66 95.96 -4.32 99.92 -5 104 C-5.99 106.97 -6.98 109.94 -8 113 C-15.59 113 -23.18 113 -31 113 C-28.05135388 100.10681413 -24.72470864 87.35881672 -21.2109375 74.609375 C-20.66075206 72.60545918 -20.11075776 70.60149087 -19.5609436 68.59747314 C-18.41828832 64.43535794 -17.27344072 60.27385411 -16.12695312 56.11279297 C-14.65905396 50.78454757 -13.19663557 45.45481566 -11.73579979 40.12462997 C-10.6055277 36.00282734 -9.47246767 31.88179517 -8.33855057 27.76099396 C-7.79787534 25.79485483 -7.25804871 23.82848213 -6.71909714 21.86186981 C-5.96838765 19.12424876 -5.21394411 16.38768384 -4.45849609 13.65136719 C-4.23820236 12.84513412 -4.01790863 12.03890106 -3.79093933 11.20823669 C-3.58361679 10.46024307 -3.37629425 9.71224945 -3.16268921 8.94158936 C-2.98536947 8.29721294 -2.80804974 7.65283653 -2.62535667 6.98893356 C-1.87892543 4.61492491 -0.92423886 2.31059715 0 0 Z " fill="#131E2C" transform="translate(808,623)"/>
<path d="M0 0 C7.01293939 6.17806565 11.17979508 12.79538652 13 22 C13.04408856 23.66608342 13.05631421 25.33428499 13 27 C10.36512838 27.87829054 8.28547977 28.25985103 5.55078125 28.53515625 C4.27944336 28.66567383 4.27944336 28.66567383 2.98242188 28.79882812 C1.66081055 28.9293457 1.66081055 28.9293457 0.3125 29.0625 C-0.58017578 29.15337891 -1.47285156 29.24425781 -2.39257812 29.33789062 C-4.59476265 29.56164199 -6.79721768 29.78222601 -9 30 C-11 24 -11 24 -13 18 C-15.37625345 16.81608777 -15.37625345 16.81608777 -18 16 C-18.99 15.67 -19.98 15.34 -21 15 C-27.50413976 14.23109976 -31.76136461 15.01863711 -37 19 C-40.90100827 24.60577511 -40.43435775 30.40588762 -40.3984375 36.96875 C-40.40130768 38.12242065 -40.40417786 39.27609131 -40.40713501 40.46472168 C-40.40917244 42.89884941 -40.40366515 45.33299363 -40.39111328 47.76708984 C-40.375056 51.48702705 -40.39097388 55.20587773 -40.41015625 58.92578125 C-40.40817376 61.29427322 -40.40432997 63.66276453 -40.3984375 66.03125 C-40.40451019 67.14077026 -40.41058289 68.25029053 -40.4168396 69.39343262 C-40.36626259 74.96261281 -40.29282389 79.26818994 -37 84 C-32.39768627 87.49775843 -28.91390773 88.62078 -23.140625 88.31640625 C-18.23054385 87.59064608 -15.6884487 85.89312264 -12.6875 82 C-10.4385197 78.00181279 -9.80927768 74.82694322 -9.4375 70.3125 C-9.293125 68.559375 -9.14875 66.80625 -9 65 C-14.61 65 -20.22 65 -26 65 C-26 59.06 -26 53.12 -26 47 C-12.8 47 0.4 47 14 47 C14.04125 51.0425 14.0825 55.085 14.125 59.25 C14.14320801 60.49813477 14.16141602 61.74626953 14.18017578 63.03222656 C14.2441023 76.15984665 12.92855347 88.74818203 4.1796875 99.16796875 C-0.56058962 103.66835331 -5.8508713 105.96849389 -12 108 C-12.99 108.33 -13.98 108.66 -15 109 C-25.41583466 109.87391276 -36.80109007 110.56572702 -46 105 C-47.5778125 104.13375 -47.5778125 104.13375 -49.1875 103.25 C-57.235632 96.8114944 -62.24165779 89.20346747 -64 79 C-64.10680666 77.16799992 -64.16788688 75.33298767 -64.19287109 73.49804688 C-64.20893402 72.41922241 -64.22499695 71.34039795 -64.24154663 70.22888184 C-64.28642149 65.2896412 -64.32708611 60.35053025 -64.35009766 55.41113281 C-64.36660861 52.81794225 -64.39383348 50.22479628 -64.43212891 47.63183594 C-64.48733907 43.86890341 -64.50884313 40.1070349 -64.5234375 36.34375 C-64.54610687 35.20160034 -64.56877625 34.05945068 -64.59213257 32.88269043 C-64.56299506 21.5954571 -61.36717585 11.16031411 -53.37109375 2.9375 C-38.3012775 -9.37655084 -16.22047554 -11.02992336 0 0 Z " fill="#131E2C" transform="translate(154,628)"/>
<path d="M0 0 C6.53914023 5.5121182 11.33145516 12.33258002 12.20703125 21.07421875 C12.21362387 22.93663464 12.10242441 24.79891105 11.96484375 26.65625 C4.53843533 28.26506575 -2.44016664 28.92067904 -10.03515625 28.65625 C-10.27298828 27.75132812 -10.27298828 27.75132812 -10.515625 26.828125 C-12.02205382 21.66798209 -13.18374292 18.49610171 -18.03515625 15.65625 C-22.32368025 13.88168835 -27.62754343 13.82027333 -32.00390625 15.33984375 C-36.55339669 17.66278272 -38.30086244 19.95780923 -40.03515625 24.65625 C-40.47938007 28.63511473 -40.47936487 32.58931335 -40.46875 36.58984375 C-40.47661278 38.31679222 -40.47661278 38.31679222 -40.4846344 40.07862854 C-40.49104552 42.50854691 -40.48972944 44.93849635 -40.48120117 47.3684082 C-40.47269341 51.07755022 -40.5014645 54.78515068 -40.53320312 58.49414062 C-40.53481538 60.85937454 -40.53423715 63.22461117 -40.53125 65.58984375 C-40.54248398 66.69420273 -40.55371796 67.79856171 -40.56529236 68.93638611 C-40.50713927 75.39087899 -39.93026597 79.43058184 -36.03515625 84.65625 C-31.31672492 88.0579098 -26.66012574 88.38335557 -21.03515625 87.65625 C-16.99469545 86.28401803 -14.12360735 84.52430992 -11.84765625 80.81640625 C-9.92009497 75.69168803 -9.64592985 70.05141683 -9.03515625 64.65625 C-14.64515625 64.65625 -20.25515625 64.65625 -26.03515625 64.65625 C-26.03515625 58.71625 -26.03515625 52.77625 -26.03515625 46.65625 C-13.16515625 46.65625 -0.29515625 46.65625 12.96484375 46.65625 C13.02671875 51.173125 13.08859375 55.69 13.15234375 60.34375 C13.19331177 62.43722778 13.19331177 62.43722778 13.23510742 64.57299805 C13.31901855 77.39696401 11.88666609 89.07852917 3.02734375 98.77734375 C-6.31779928 107.87217045 -15.79139161 109.23513225 -28.38989258 109.13378906 C-34.92462125 108.92464015 -40.35875192 108.09071313 -46.03515625 104.65625 C-47.61296875 103.79 -47.61296875 103.79 -49.22265625 102.90625 C-56.3273712 97.22247804 -60.19151437 91.26361764 -63.03515625 82.65625 C-63.36515625 81.66625 -63.69515625 80.67625 -64.03515625 79.65625 C-64.13295687 77.90945484 -64.17334998 76.15918456 -64.18041992 74.40966797 C-64.18679977 73.33780243 -64.19317963 72.26593689 -64.19975281 71.16159058 C-64.20086563 70.00225006 -64.20197845 68.84290955 -64.203125 67.6484375 C-64.2064534 66.45324493 -64.2097818 65.25805237 -64.21321106 64.02664185 C-64.21827916 61.49302556 -64.22061942 58.9594026 -64.22045898 56.42578125 C-64.22263574 52.56759453 -64.24076611 48.70969824 -64.25976562 44.8515625 C-64.26270158 42.38802181 -64.26468502 39.92447976 -64.265625 37.4609375 C-64.27281052 36.31374237 -64.27999603 35.16654724 -64.28739929 33.98458862 C-64.25330966 21.89855939 -62.22178511 12.03089041 -53.84765625 2.90625 C-39.68639999 -10.36223141 -15.50739792 -11.44126284 0 0 Z " fill="#141F2D" transform="translate(679.03515625,628.34375)"/>
<path d="M0 0 C7.65005438 6.1232244 12.4942467 13.78380091 13.62890625 23.56640625 C13.71140625 24.86578125 13.79390625 26.16515625 13.87890625 27.50390625 C6.46747061 28.93016191 -0.56971443 29.8046249 -8.12109375 29.50390625 C-8.53359375 28.26640625 -8.94609375 27.02890625 -9.37109375 25.75390625 C-11.08561367 21.21924141 -13.0519408 18.68627937 -17.30859375 16.25390625 C-22.82302158 14.78339216 -27.37084251 14.59636857 -32.49609375 17.25390625 C-35.87702481 20.15184716 -37.7128867 22.27928511 -39.12109375 26.50390625 C-39.22799476 28.13322396 -39.27973135 29.76645232 -39.2980957 31.39916992 C-39.31093094 32.39418015 -39.32376617 33.38919037 -39.33699036 34.41435242 C-39.34437729 35.48933487 -39.35176422 36.56431732 -39.359375 37.671875 C-39.36744675 38.78065506 -39.37551849 39.88943512 -39.38383484 41.03181458 C-39.39767326 43.38130125 -39.40839649 45.730808 -39.41625977 48.08032227 C-39.43344328 51.66006 -39.47732966 55.23886719 -39.52148438 58.81835938 C-39.5316141 61.1028578 -39.54012933 63.38736407 -39.546875 65.671875 C-39.56438309 66.7367363 -39.58189117 67.8015976 -39.59992981 68.89872742 C-39.58163611 75.21912284 -38.94088532 80.2995746 -35.12109375 85.50390625 C-30.49236176 88.94854401 -25.69960142 89.25370567 -20.12109375 88.50390625 C-16.53889665 87.1108296 -13.3841488 85.67218332 -11.12109375 82.50390625 C-9.06744808 76.91342636 -8.60764226 71.42357976 -8.12109375 65.50390625 C-13.73109375 65.50390625 -19.34109375 65.50390625 -25.12109375 65.50390625 C-25.12109375 59.56390625 -25.12109375 53.62390625 -25.12109375 47.50390625 C-12.25109375 47.50390625 0.61890625 47.50390625 13.87890625 47.50390625 C13.94078125 52.39203125 14.00265625 57.28015625 14.06640625 62.31640625 C14.10737427 64.59381714 14.10737427 64.59381714 14.14916992 66.91723633 C14.21785284 78.20412851 12.93775463 89.24353585 5.87890625 98.50390625 C-4.70504221 108.72975119 -15.95075531 110.08074342 -30.078125 109.84375 C-39.30888812 109.43032983 -46.83473952 105.76825257 -53.44140625 99.3671875 C-64.80169329 86.76519467 -63.60062956 70.24549298 -63.51220703 54.28295898 C-63.49608207 50.81389328 -63.51213958 47.34598411 -63.53125 43.87695312 C-63.52926818 41.64452871 -63.52542576 39.41210501 -63.51953125 37.1796875 C-63.52560394 36.15651932 -63.53167664 35.13335114 -63.53793335 34.07917786 C-63.42673362 22.57474257 -60.13616024 12.55233032 -52.59765625 3.71875 C-38.98983647 -9.2584635 -15.27424018 -10.33711204 0 0 Z " fill="#131E2C" transform="translate(586.12109375,627.49609375)"/>
<path d="M0 0 C20.46 0 40.92 0 62 0 C62 6.93 62 13.86 62 21 C49.13 21 36.26 21 23 21 C23 29.25 23 37.5 23 46 C33.89 46 44.78 46 56 46 C56 52.6 56 59.2 56 66 C45.11 66 34.22 66 23 66 C23 74.58 23 83.16 23 92 C36.2 92 49.4 92 63 92 C63 98.93 63 105.86 63 113 C42.21 113 21.42 113 0 113 C0 75.71 0 38.42 0 0 Z " fill="#131E2C" transform="translate(706,623)"/>
<path d="M0 0 C1.35351562 -0.03577148 1.35351562 -0.03577148 2.734375 -0.07226562 C4.04148437 -0.06936523 4.04148437 -0.06936523 5.375 -0.06640625 C6.16648437 -0.06713135 6.95796875 -0.06785645 7.7734375 -0.06860352 C11.15557272 0.89003898 12.19845424 2.60965115 14 5.5625 C14.49829102 8.5769043 14.49829102 8.5769043 14.50390625 11.88671875 C14.53194336 13.67625977 14.53194336 13.67625977 14.56054688 15.50195312 C14.56119141 16.73880859 14.56183594 17.97566406 14.5625 19.25 C14.57139843 21.712323 14.59287588 24.17464329 14.62890625 26.63671875 C14.62963135 27.72557373 14.63035645 28.81442871 14.63110352 29.9362793 C14.75283936 30.80293213 14.8745752 31.66958496 15 32.5625 C18.48294267 34.88446178 19.94260823 34.82454591 24.05859375 34.87109375 C25.24904297 34.89623047 26.43949219 34.92136719 27.66601562 34.94726562 C30.1763814 34.98236654 32.68680384 35.01362877 35.19726562 35.04101562 C36.38900391 35.06744141 37.58074219 35.09386719 38.80859375 35.12109375 C39.89970459 35.13454834 40.99081543 35.14800293 42.11499023 35.16186523 C45.37304431 35.61430382 46.77051608 36.15140823 49 38.5625 C49.83479188 42.15649873 49.60257233 45.82041736 49.5625 49.5 C49.59827148 51.00336914 49.59827148 51.00336914 49.63476562 52.53710938 C49.63283203 53.50326172 49.63089844 54.46941406 49.62890625 55.46484375 C49.62963135 56.34648193 49.63035645 57.22812012 49.63110352 58.13647461 C48.70862927 61.68255838 47.09701349 62.70265047 44 64.5625 C40.9855957 65.07666016 40.9855957 65.07666016 37.67578125 65.1015625 C36.48275391 65.12476563 35.28972656 65.14796875 34.06054688 65.171875 C32.20526367 65.17960937 32.20526367 65.17960937 30.3125 65.1875 C27.85015894 65.21292428 25.38788326 65.24635938 22.92578125 65.2890625 C21.83692627 65.29502441 20.74807129 65.30098633 19.6262207 65.30712891 C16.84177134 65.29716084 16.84177134 65.29716084 15 67.5625 C14.71058809 70.19906066 14.71058809 70.19906066 14.76171875 73.26953125 C14.74560547 74.41357422 14.72949219 75.55761719 14.71289062 76.73632812 C14.69604569 79.15033747 14.69072346 81.56445637 14.69726562 83.97851562 C14.54621799 92.6564461 14.54621799 92.6564461 12.01953125 96.84765625 C7.9023552 99.18587137 4.66148414 99.30101017 0 99.1875 C-0.7940625 99.20683594 -1.588125 99.22617187 -2.40625 99.24609375 C-6.29911391 99.21365322 -8.59106023 98.79474393 -12.01953125 96.84765625 C-15.16659339 91.62738158 -14.70370521 86.35472408 -14.6875 80.375 C-14.7040278 78.00643888 -14.72836123 75.63791514 -14.76171875 73.26953125 C-14.76131592 72.2225708 -14.76091309 71.17561035 -14.76049805 70.09692383 C-14.74433454 67.39320175 -14.74433454 67.39320175 -17 65.5625 C-19.74919778 65.2231835 -19.74919778 65.2231835 -22.9609375 65.21875 C-24.15460938 65.18910156 -25.34828125 65.15945313 -26.578125 65.12890625 C-28.45757812 65.09603516 -28.45757812 65.09603516 -30.375 65.0625 C-32.84131387 65.01909696 -35.30749901 64.96736701 -37.7734375 64.90625 C-38.87091309 64.88755859 -39.96838867 64.86886719 -41.09912109 64.84960938 C-43.94859635 64.56758759 -45.62582777 64.12819281 -48 62.5625 C-49.87631321 58.80987357 -49.27120023 54.31747651 -49.3125 50.1875 C-49.34150391 49.2284375 -49.37050781 48.269375 -49.40039062 47.28125 C-49.41295898 45.89292969 -49.41295898 45.89292969 -49.42578125 44.4765625 C-49.44036377 43.6304541 -49.45494629 42.7843457 -49.4699707 41.91259766 C-48.81650979 38.64495365 -47.67413799 37.51610329 -45 35.5625 C-42.11499023 35.06420898 -42.11499023 35.06420898 -38.80859375 35.05859375 C-37.61685547 35.03990234 -36.42511719 35.02121094 -35.19726562 35.00195312 C-33.95654297 35.00130859 -32.71582031 35.00066406 -31.4375 35 C-28.97778114 34.99108336 -26.51806599 34.96954705 -24.05859375 34.93359375 C-22.96861084 34.93286865 -21.87862793 34.93214355 -20.75561523 34.93139648 C-18.03424028 34.7575546 -18.03424028 34.7575546 -16.14453125 33.41796875 C-14.49388721 30.74200998 -14.63098765 28.63271062 -14.62890625 25.50390625 C-14.61150391 24.31345703 -14.59410156 23.12300781 -14.57617188 21.89648438 C-14.56707149 19.3860788 -14.56185099 16.87565611 -14.56054688 14.36523438 C-14.54185547 13.17349609 -14.52316406 11.98175781 -14.50390625 10.75390625 C-14.50205322 9.66279541 -14.5002002 8.57168457 -14.49829102 7.44750977 C-13.09925357 -0.6526497 -6.6903134 -0.08123952 0 0 Z " fill="#F2F4F6" transform="translate(396,313.4375)"/>
<path d="M0 0 C7.59 0 15.18 0 23 0 C23 37.29 23 74.58 23 113 C15.41 113 7.82 113 0 113 C0 75.71 0 38.42 0 0 Z " fill="#14202E" transform="translate(390,623)"/>
<path d="M0 0 C4.77389294 2.72156514 8.15111974 5.80783249 9.83984375 11.12890625 C10.70022878 16.79558006 10.12328652 21.31319019 6.83984375 26.12890625 C2.63457386 30.26689182 -0.49905264 32.28797597 -6.41015625 32.44140625 C-11.49952994 32.38818404 -14.28397499 31.62692349 -18.16015625 28.12890625 C-22.05770053 23.91534486 -22.9952847 21.35467213 -23.41015625 15.75390625 C-23.00773194 9.91875375 -20.95199463 6.62734097 -16.66015625 2.81640625 C-11.79315494 -1.25010142 -5.95814835 -2.40265295 0 0 Z " fill="#5EC4F4" transform="translate(599.16015625,345.87109375)"/>
<path d="M0 0 C4.881441 2.26638332 7.70028068 5.13520912 10 10 C10.76497097 15.16745697 10.80321342 20.1855908 8.4375 24.9375 C4.99475581 29.26299911 1.94953774 31.54658453 -3.46484375 32.37890625 C-9.14619158 32.64375104 -12.60867624 31.86854712 -17 28 C-21.22987293 23.31284351 -22.41841485 19.61440023 -22.34765625 13.41796875 C-21.75390446 9.28839166 -19.79634126 6.05180947 -17 3 C-11.6353482 -0.95529413 -6.43264116 -0.7768047 0 0 Z " fill="#F85B50" transform="translate(640,308)"/>
<path d="M0 0 C3.89465456 2.5399921 6.79759339 5.38867705 8.6875 9.75 C8.749375 10.45125 8.81125 11.1525 8.875 11.875 C8.99875 13.1125 9.1225 14.35 9.25 15.625 C9.18572966 20.53709039 7.12079102 24.26055123 3.875 27.875 C-1.49220528 31.84127373 -6.68851824 31.63480178 -13.125 30.875 C-18.06029954 28.75987163 -20.32128803 25.81067284 -22.42578125 21.015625 C-23.86434872 16.611519 -23.99573973 13.07391877 -22.27734375 8.734375 C-17.60486681 0.18136637 -9.37043219 -3.37335559 0 0 Z " fill="#2AAB60" transform="translate(641.125,384.125)"/>
<path d="M0 0 C4.45146251 2.18526342 7.18885145 4.9394521 10 9 C11.70108067 14.10324201 11.56521247 18.31873434 9.3125 23.1875 C6.83698495 27.71716583 3.93990878 30.35336374 -1 32 C-5.66694522 32.54225459 -9.07771048 32.4698456 -13.3125 30.3125 C-16.9366947 27.19400688 -20.68553104 23.81991022 -21.23828125 18.86328125 C-21.42037901 12.60486878 -20.82021417 9.0265976 -17 4 C-11.96844758 -0.78611084 -6.6108623 -0.97537313 0 0 Z " fill="#FAC347" transform="translate(680,346)"/>
<path d="M0 0 C3.01125 -0.0825 6.0225 -0.165 9.125 -0.25 C10.06230957 -0.28641602 10.99961914 -0.32283203 11.96533203 -0.36035156 C17.4965233 -0.43339392 20.62128098 0.29861408 25 4 C28.61953884 7.98149273 28.44408194 12.20284956 28.28515625 17.34375 C27.76037242 22.23214736 26.07924217 24.97610358 22.5625 28.3125 C17.84990769 31.41591445 13.24813859 31.12515527 7.75 31.0625 C5.1925 31.041875 2.635 31.02125 0 31 C0 20.77 0 10.54 0 0 Z " fill="#F2F4F7" transform="translate(898,644)"/>
<path d="M0 0 C20.46 0 40.92 0 62 0 C62 6.93 62 13.86 62 21 C49.13 21 36.26 21 23 21 C23 20.67 23 20.34 23 20 C35.21 20 47.42 20 60 20 C60 14.39 60 8.78 60 3 C41.19 3 22.38 3 3 3 C3 38.31 3 73.62 3 110 C22.14 110 41.28 110 61 110 C61 105.05 61 100.1 61 95 C48.46 95 35.92 95 23 95 C23 94.67 23 94.34 23 94 C35.87 94 48.74 94 62 94 C62 99.61 62 105.22 62 111 C42.2 111 22.4 111 2 111 C2 111.66 2 112.32 2 113 C1.34 113 0.68 113 0 113 C0 75.71 0 38.42 0 0 Z " fill="#262E38" transform="translate(706,623)"/>
<path d="M0 0 C2.25706906 3.38560359 3.01500749 6.55271674 3.91015625 10.44921875 C4.16870644 11.54638969 4.16870644 11.54638969 4.43247986 12.66572571 C4.79590512 14.21420602 5.15631127 15.76339758 5.51391602 17.31323242 C6.05688073 19.66317983 6.61064977 22.01037816 7.16601562 24.35742188 C7.51888115 25.86703525 7.87111456 27.37679655 8.22265625 28.88671875 C8.38621109 29.5797258 8.54976593 30.27273285 8.71827698 30.98674011 C8.87191208 31.65715836 9.02554718 32.3275766 9.18383789 33.01831055 C9.38463707 33.88409981 9.38463707 33.88409981 9.5894928 34.76737976 C10.21213566 38.1537395 10.57293279 41.58346228 11 45 C4.07 45 -2.86 45 -10 45 C-8.875 36 -8.875 36 -8.06030273 32.6953125 C-7.8801915 31.95514893 -7.70008026 31.21498535 -7.51451111 30.45239258 C-7.32280838 29.68435303 -7.13110565 28.91631348 -6.93359375 28.125 C-6.73524429 27.31506592 -6.53689484 26.50513184 -6.33253479 25.6706543 C-5.70508452 23.11270784 -5.07140437 20.55635378 -4.4375 18 C-4.00804887 16.25400819 -3.57900845 14.50791531 -3.15039062 12.76171875 C-2.10500285 8.50662977 -1.0540294 4.25295622 0 0 Z " fill="#F0F3F6" transform="translate(217,650)"/>
<path d="M0 0 C0.89138672 0.32484375 0.89138672 0.32484375 1.80078125 0.65625 C11.7611708 4.00219735 20.26059622 4.04004898 30 0 C29.67 0.9075 29.34 1.815 29 2.75 C27.03687051 9.57222306 27.42854553 17.13588687 29 24 C27.741875 23.67 26.48375 23.34 25.1875 23 C16.23984365 21.04752868 8.46678746 21.48785113 0 25 C0.16226074 24.42185547 0.32452148 23.84371094 0.49169922 23.24804688 C1.29438794 19.69801912 1.14344118 16.12061766 1.125 12.5 C1.12886719 11.74074219 1.13273438 10.98148437 1.13671875 10.19921875 C1.13046768 6.62985544 0.96340936 3.43268398 0 0 Z " fill="#324259" transform="translate(619,349)"/>
<path d="M0 0 C1.41270121 2.64620152 2.38339512 5.08119486 3.05322266 8.00244141 C3.23325836 8.77649323 3.41329407 9.55054504 3.5987854 10.34805298 C3.78532684 11.17421112 3.97186829 12.00036926 4.1640625 12.8515625 C4.36099701 13.70680511 4.55793152 14.56204773 4.76083374 15.44320679 C5.17499919 17.24641627 5.58669886 19.05019364 5.99609375 20.85449219 C6.62456178 23.62306952 7.26084814 26.38976057 7.8984375 29.15625 C8.29993804 30.9087491 8.70099507 32.66134988 9.1015625 34.4140625 C9.2921524 35.2442691 9.48274231 36.07447571 9.67910767 36.92984009 C11 42.76708008 11 42.76708008 11 45 C3.74 45 -3.52 45 -11 45 C-3.42553191 12.12765957 -3.42553191 12.12765957 0 0 Z " fill="#EEF1F3" transform="translate(821,650)"/>
<path d="M0 0 C0.33 0 0.66 0 1 0 C1 35.97 1 71.94 1 109 C7.27 109 13.54 109 20 109 C20 73.03 20 37.06 20 0 C20.66 0 21.32 0 22 0 C22 36.63 22 73.26 22 111 C14.41 111 6.82 111 -1 111 C-1.02987813 100.93750593 -1.05102569 90.87503024 -1.0625 80.8125 C-1.06335602 80.06712227 -1.06421204 79.32174454 -1.06509399 78.5537796 C-1.09166147 52.35745302 -0.77957051 26.18610521 0 0 Z " fill="#020914" transform="translate(391,625)"/>
<path d="M0 0 C7.26 0 14.52 0 22 0 C22 37.29 22 74.58 22 113 C15.4 112.67 8.8 112.34 2 112 C2 111.67 2 111.34 2 111 C7.94 111 13.88 111 20 111 C20 75.36 20 39.72 20 3 C13.73 2.67 7.46 2.34 1 2 C1.33 23.45 1.66 44.9 2 67 C1.34 66.67 0.68 66.34 0 66 C0 44.22 0 22.44 0 0 Z " fill="#060A12" transform="translate(486,623)"/>
<path d="M0 0 C0.33 0 0.66 0 1 0 C1.33 37.29 1.66 74.58 2 113 C9.26 113 16.52 113 24 113 C24 90.23 24 67.46 24 44 C25.90318884 46.85478326 26.4619099 48.41941308 27.125 51.6875 C27.29257812 52.49574219 27.46015625 53.30398438 27.6328125 54.13671875 C27.75398438 54.75160156 27.87515625 55.36648438 28 56 C27.67 56 27.34 56 27 56 C26.99191315 56.70965912 26.98382629 57.41931824 26.97549438 58.15048218 C26.89762497 64.83114337 26.81035789 71.5116075 26.71247292 78.19200706 C26.66247962 81.62666136 26.61615022 85.06128445 26.578125 88.49609375 C26.5342726 92.44288688 26.47460852 96.38936366 26.4140625 100.3359375 C26.39673569 102.19066177 26.39673569 102.19066177 26.37905884 104.08285522 C26.35918915 105.22388702 26.33931946 106.36491882 26.31884766 107.54052734 C26.30552399 108.548685 26.29220032 109.55684265 26.2784729 110.59555054 C26 113 26 113 24 115 C21.78515625 115.25878906 21.78515625 115.25878906 19.0625 115.265625 C18.08539063 115.26820313 17.10828125 115.27078125 16.1015625 115.2734375 C15.07804687 115.26570312 14.05453125 115.25796875 13 115.25 C11.97648437 115.25773438 10.95296875 115.26546875 9.8984375 115.2734375 C8.92132813 115.27085937 7.94421875 115.26828125 6.9375 115.265625 C6.03902344 115.26336914 5.14054687 115.26111328 4.21484375 115.25878906 C2 115 2 115 0 113 C-0.24609566 110.98914146 -0.24609566 110.98914146 -0.24050903 108.46957397 C-0.24325836 107.51602524 -0.24600769 106.5624765 -0.24884033 105.58003235 C-0.24164978 104.53058945 -0.23445923 103.48114655 -0.22705078 102.39990234 C-0.22734283 101.29745682 -0.22763489 100.19501129 -0.22793579 99.05915833 C-0.22653822 95.40133903 -0.2109568 91.74372138 -0.1953125 88.0859375 C-0.19158389 85.55530916 -0.1887362 83.02467937 -0.18673706 80.49404907 C-0.17987111 74.50523494 -0.16409512 68.51650788 -0.14403808 62.52772868 C-0.12170069 55.71040993 -0.1106911 48.89308775 -0.10064721 42.07574153 C-0.07972945 28.050454 -0.04453999 14.02523098 0 0 Z " fill="#FBFCFC" transform="translate(270,623)"/>
<path d="M0 0 C0.33 0 0.66 0 1 0 C1 35.97 1 71.94 1 109 C7.27 109 13.54 109 20 109 C20 86.23 20 63.46 20 40 C21.485 40.495 21.485 40.495 23 41 C22.34 41 21.68 41 21 41 C21.33 41.66 21.66 42.32 22 43 C22.09182083 45.1547893 22.11750462 47.31249718 22.11352539 49.46923828 C22.11367142 50.13277313 22.11381744 50.79630798 22.1139679 51.47994995 C22.11327031 53.67677053 22.10548514 55.8735067 22.09765625 58.0703125 C22.09579152 59.59203037 22.09436788 61.11374884 22.09336853 62.63546753 C22.08954767 66.64351047 22.07972104 70.65151726 22.06866455 74.6595459 C22.05844118 78.74828604 22.05386892 82.83703201 22.04882812 86.92578125 C22.0380984 94.95053928 22.02050507 102.97526098 22 111 C14.74 111 7.48 111 0 111 C0 74.37 0 37.74 0 0 Z " fill="#03060F" transform="translate(272,625)"/>
<path d="M0 0 C0.33 0 0.66 0 1 0 C1.33 29.04 1.66 58.08 2 88 C-5.26 88 -12.52 88 -20 88 C-20 65.56 -20 43.12 -20 20 C-19.67 20 -19.34 20 -19 20 C-19 41.78 -19 63.56 -19 86 C-12.73 86 -6.46 86 0 86 C0 57.62 0 29.24 0 0 Z " fill="#000108" transform="translate(371,648)"/>
<path d="M0 0 C13.2 0 26.4 0 40 0 C40 8.58 40 17.16 40 26 C39.01 25.67 38.02 25.34 37 25 C37 17.74 37 10.48 37 3 C25.78 3 14.56 3 3 3 C3 6.96 3 10.92 3 15 C7.62 15 12.24 15 17 15 C17 15.33 17 15.66 17 16 C12.05 16 7.1 16 2 16 C2.06510417 12.41927083 2.13020833 8.83854167 2.1953125 5.2578125 C2.35641524 1.91406662 2.35641524 1.91406662 0 0 Z " fill="#202936" transform="translate(128,675)"/>
<path d="M0 0 C0.33 0 0.66 0 1 0 C1.00586624 0.65066437 1.01173248 1.30132874 1.01777649 1.97171021 C1.08178355 8.75290906 1.16622263 15.53363656 1.26245117 22.31445312 C1.29567514 24.84401225 1.32371489 27.37364505 1.34643555 29.90332031 C1.38002704 33.54263667 1.43234754 37.18127934 1.48828125 40.8203125 C1.49786613 42.51282639 1.49786613 42.51282639 1.50764465 44.23953247 C1.64789284 52.04400533 1.64789284 52.04400533 5 59 C8.04797373 61.36702059 8.04797373 61.36702059 11 63 C9.515 63.495 9.515 63.495 8 64 C4.43211064 61.4515076 1.42745808 59.28237425 0 55 C0 54.01 0 53.02 0 52 C-0.66 52 -1.32 52 -2 52 C-2 35.5 -2 19 -2 2 C-1.34 2 -0.68 2 0 2 C0 1.34 0 0.68 0 0 Z " fill="#272E37" transform="translate(112,653)"/>
<path d="M0 0 C12.87 0 25.74 0 39 0 C39 8.25 39 16.5 39 25 C38.67 25 38.34 25 38 25 C38 17.41 38 9.82 38 2 C26.12 2 14.24 2 2 2 C2 6.62 2 11.24 2 16 C6.95 16 11.9 16 17 16 C17 16.33 17 16.66 17 17 C11.39 17 5.78 17 0 17 C0 11.39 0 5.78 0 0 Z " fill="#090C15" transform="translate(653,675)"/>
<path d="M0 0 C3.05383204 1.52691602 3.38086503 3.95216256 4.625 7.0625 C5.07101562 8.16722656 5.51703125 9.27195312 5.9765625 10.41015625 C6.31429688 11.26480469 6.65203125 12.11945312 7 13 C5.68 12.67 4.36 12.34 3 12 C3.00666183 12.63449066 3.01332367 13.26898132 3.02018738 13.92269897 C3.08640091 20.50831043 3.13174223 27.09382781 3.16479492 33.6796875 C3.17990988 36.13968748 3.20040227 38.59966041 3.22631836 41.05957031 C3.2625823 44.58926052 3.27969914 48.11859544 3.29296875 51.6484375 C3.30845261 52.75367767 3.32393646 53.85891785 3.33988953 54.99765015 C3.34011612 56.01855743 3.34034271 57.03946472 3.34057617 58.09130859 C3.34723801 58.99287689 3.35389984 59.89444519 3.36076355 60.82333374 C3.24171158 61.54163361 3.12265961 62.25993347 3 63 C1.515 63.99 1.515 63.99 0 65 C0 43.55 0 22.1 0 0 Z " fill="#BCC0C6" transform="translate(452,671)"/>
<path d="M0 0 C0.33 0 0.66 0 1 0 C1 13.2 1 26.4 1 40 C-6.26 40 -13.52 40 -21 40 C-21 32.08 -21 24.16 -21 16 C-20.67 16 -20.34 16 -20 16 C-20 23.26 -20 30.52 -20 38 C-13.73 38 -7.46 38 -1 38 C-1.020625 35.256875 -1.04125 32.51375 -1.0625 29.6875 C-1.09830288 19.76573612 -0.62080936 9.8996921 0 0 Z " fill="#020711" transform="translate(897,696)"/>
<path d="M0 0 C12.87 0 25.74 0 39 0 C39 0.33 39 0.66 39 1 C26.79 1 14.58 1 2 1 C2.33 8.26 2.66 15.52 3 23 C12.9 23.33 22.8 23.66 33 24 C33 24.33 33 24.66 33 25 C22.11 25 11.22 25 0 25 C0 16.75 0 8.5 0 0 Z " fill="#CACFD4" transform="translate(729,644)"/>
<path d="M0 0 C0.66 0.99 1.32 1.98 2 3 C-1.3 3 -4.6 3 -8 3 C-8.33 2.34 -8.66 1.68 -9 1 C-5.92859432 0.08995387 -3.20100846 -0.33694826 0 0 Z M2 1 C33.35 1 64.7 1 97 1 C97 1.33 97 1.66 97 2 C65.65 2 34.3 2 2 2 C2 1.67 2 1.34 2 1 Z " fill="#EBEDF0" transform="translate(459,473)"/>
<path d="M0 0 C0.99 0 1.98 0 3 0 C3.76253111 31.47493779 3.76253111 31.47493779 -1 41 C-1.66 41 -2.32 41 -3 41 C-2.86287598 40.31067383 -2.72575195 39.62134766 -2.58447266 38.91113281 C-1.03601145 30.5131221 -0.58065525 22.27612411 -0.375 13.75 C-0.33669011 12.4075304 -0.29763159 11.06508194 -0.2578125 9.72265625 C-0.16455333 6.48190024 -0.07875536 3.24113534 0 0 Z " fill="#EBEDEF" transform="translate(692,675)"/>
<path d="M0 0 C8.91 0 17.82 0 27 0 C26.67 0.99 26.34 1.98 26 3 C18.08 3 10.16 3 2 3 C1.67 3.66 1.34 4.32 1 5 C0.67 3.35 0.34 1.7 0 0 Z " fill="#232B35" transform="translate(204,623)"/>
<path d="M0 0 C0.33 0 0.66 0 1 0 C1 21.78 1 43.56 1 66 C0.01 64.68 -0.98 63.36 -2 62 C-1.67 61.01 -1.34 60.02 -1 59 C-0.88340066 57.08345949 -0.82333251 55.16327847 -0.79467773 53.2434082 C-0.7647599 51.47191154 -0.7647599 51.47191154 -0.73423767 49.66462708 C-0.71752518 48.38955795 -0.70081268 47.11448883 -0.68359375 45.80078125 C-0.66281265 44.49545944 -0.64203156 43.19013763 -0.62062073 41.84526062 C-0.56547727 38.37817647 -0.51603405 34.91103354 -0.46777344 31.44384766 C-0.4175019 27.90456931 -0.36184537 24.36537611 -0.30664062 20.82617188 C-0.19915362 13.88418844 -0.09768773 6.94212806 0 0 Z " fill="#E4E9EC" transform="translate(485,624)"/>
<path d="M0 0 C6.27 0 12.54 0 19 0 C19 0.66 19 1.32 19 2 C20.32 2.66 21.64 3.32 23 4 C23 4.99 23 5.98 23 7 C22.60578857 6.5155542 22.21157715 6.0311084 21.80541992 5.53198242 C19.47926837 3.55813509 18.1357377 3.57987084 15.11328125 3.48828125 C13.7065918 3.43510742 13.7065918 3.43510742 12.27148438 3.38085938 C11.29501953 3.35830078 10.31855469 3.33574219 9.3125 3.3125 C8.32443359 3.27833984 7.33636719 3.24417969 6.31835938 3.20898438 C3.87901947 3.12649462 1.44003937 3.05734932 -1 3 C-0.67 2.01 -0.34 1.02 0 0 Z " fill="#202730" transform="translate(386,311)"/>
<path d="M0 0 C3.10762182 4.66143273 4.42347909 9.46687729 3.625 15 C3.41875 15.99 3.2125 16.98 3 18 C2.34 16.68 1.68 15.36 1 14 C-0.98 14.99 -0.98 14.99 -3 16 C-2.40984815 10.49191603 -1.43336231 5.35121931 0 0 Z " fill="#E7EAEC" transform="translate(217,650)"/>
<path d="M0 0 C0.33 0 0.66 0 1 0 C1 1.65 1 3.3 1 5 C7.6 5 14.2 5 21 5 C21.33 4.34 21.66 3.68 22 3 C22 4.32 22 5.64 22 7 C14.08 7 6.16 7 -2 7 C-1.34 4.69 -0.68 2.38 0 0 Z " fill="#080E18" transform="translate(175,729)"/>
<path d="M0 0 C2 3 2 3 2 6 C8.93 6 15.86 6 23 6 C23.33 5.34 23.66 4.68 24 4 C24.33 5.32 24.66 6.64 25 8 C17.08 8 9.16 8 1 8 C0.67 5.36 0.34 2.72 0 0 Z " fill="#050B14" transform="translate(237,728)"/>
<path d="M0 0 C1.3303125 0.495 1.3303125 0.495 2.6875 1 C2.6875 1.33 2.6875 1.66 2.6875 2 C-0.60409316 2.05790353 -3.89555603 2.09356261 -7.1875 2.125 C-8.59322266 2.15013672 -8.59322266 2.15013672 -10.02734375 2.17578125 C-11.37119141 2.18544922 -11.37119141 2.18544922 -12.7421875 2.1953125 C-13.56960449 2.20578613 -14.39702148 2.21625977 -15.24951172 2.22705078 C-17.3125 2 -17.3125 2 -19.3125 0 C-14.06303023 -2.62473488 -5.53904273 -1.60700622 0 0 Z " fill="#1D242D" transform="translate(140.3125,622)"/>
<path d="M0 0 C0.66 0.33 1.32 0.66 2 1 C2 2.32 2 3.64 2 5 C-5.59 5 -13.18 5 -21 5 C-21 4.34 -21 3.68 -21 3 C-14.07 3 -7.14 3 0 3 C0 2.01 0 1.02 0 0 Z " fill="#060D17" transform="translate(863,731)"/>
<path d="M0 0 C0.66 0 1.32 0 2 0 C2 1.32 2 2.64 2 4 C-4.93 4 -11.86 4 -19 4 C-18.67 3.34 -18.34 2.68 -18 2 C-12.06 2 -6.12 2 0 2 C0 1.34 0 0.68 0 0 Z " fill="#F9FAFA" transform="translate(226,691)"/>
<path d="M0 0 C1.15371094 -0.01417969 2.30742188 -0.02835938 3.49609375 -0.04296875 C6.5625 0.1875 6.5625 0.1875 9.5625 2.1875 C6.59208551 3.67270725 3.86485553 3.3580822 0.5625 3.375 C-1.3246875 3.39626953 -1.3246875 3.39626953 -3.25 3.41796875 C-6.4375 3.1875 -6.4375 3.1875 -8.4375 1.1875 C-5.60362485 -0.22943757 -3.15720627 0.0175987 0 0 Z " fill="#1F2630" transform="translate(653.4375,620.8125)"/>
<path d="M0 0 C0.33 0 0.66 0 1 0 C1.33 5.94 1.66 11.88 2 18 C-4.93 18 -11.86 18 -19 18 C-19 17.67 -19 17.34 -19 17 C-12.73 16.67 -6.46 16.34 0 16 C0 10.72 0 5.44 0 0 Z " fill="#060E1B" transform="translate(371,718)"/>
<path d="M0 0 C0.66 0.33 1.32 0.66 2 1 C0.35 5.62 -1.3 10.24 -3 15 C-4.88457202 11.23085596 -5.49881499 9.99051989 -5 6 C-3.625 3.6875 -3.625 3.6875 -2 2 C-1.34 2 -0.68 2 0 2 C0 1.34 0 0.68 0 0 Z " fill="#EEEFF2" transform="translate(326,672)"/>
<path d="M0 0 C0.66 0 1.32 0 2 0 C1.88534579 2.22972273 1.75785234 4.45878753 1.625 6.6875 C1.55539062 7.92886719 1.48578125 9.17023437 1.4140625 10.44921875 C1.03136906 13.73099549 0.57702442 16.10878856 -1 19 C-1.99 19.33 -2.98 19.66 -4 20 C-2.68 13.4 -1.36 6.8 0 0 Z " fill="#E6E8EB" transform="translate(769,507)"/>
<path d="M0 0 C2.3016847 4.05450613 1.94812273 6.41740679 1 11 C-0.03776778 14.52841045 -1.25646922 17.76201426 -3 21 C-3.95827504 17.95501389 -3.99431517 15.97726069 -3.22265625 12.890625 C-3.03896484 12.13652344 -2.85527344 11.38242187 -2.66601562 10.60546875 C-2.36727539 9.43951172 -2.36727539 9.43951172 -2.0625 8.25 C-1.86720703 7.45722656 -1.67191406 6.66445313 -1.47070312 5.84765625 C-0.98875921 3.89637115 -0.49547912 1.94789217 0 0 Z " fill="#E4E7E9" transform="translate(213,666)"/>
<path d="M0 0 C0 0.66 0 1.32 0 2 C-0.721875 1.979375 -1.44375 1.95875 -2.1875 1.9375 C-4.97918204 1.90918608 -4.97918204 1.90918608 -7.5625 2.5625 C-10 3 -10 3 -12.0625 2.4375 C-14.65771234 1.85148431 -15.74069115 2.71972499 -18 4 C-18.66 4 -19.32 4 -20 4 C-20 3.34 -20 2.68 -20 2 C-16.06437847 0.1909432 -12.6227384 -0.38770007 -8.3125 -0.6875 C-7.17425781 -0.77386719 -6.03601563 -0.86023438 -4.86328125 -0.94921875 C-2 -1 -2 -1 0 0 Z " fill="#EFF0F3" transform="translate(548,216)"/>
<path d="M0 0 C5.41538462 -0.36923077 5.41538462 -0.36923077 8.375 1.5 C8.91125 1.995 9.4475 2.49 10 3 C9.67 3.66 9.34 4.32 9 5 C8.34 4.67 7.68 4.34 7 4 C4.89044938 3.80261277 4.89044938 3.80261277 2.5625 3.8125 C1.78003906 3.79832031 0.99757813 3.78414062 0.19140625 3.76953125 C-2.29205987 3.85913936 -2.29205987 3.85913936 -5 6 C-5.99 5.67 -6.98 5.34 -8 5 C-3.375 2 -3.375 2 0 2 C0 1.34 0 0.68 0 0 Z " fill="#E8EBED" transform="translate(562,151)"/>
<path d="M0 0 C1.98 0 3.96 0 6 0 C5.01 0.66 4.02 1.32 3 2 C2.0998674 4.11633845 2.0998674 4.11633845 1.5 6.5 C0.33333333 10.77777778 0.33333333 10.77777778 -3 13 C-2.01 8.71 -1.02 4.42 0 0 Z " fill="#E5E7EA" transform="translate(201,717)"/>
<path d="M0 0 C-7.50216736 3.0517291 -13.94635715 3.33608711 -22 3 C-22 2.67 -22 2.34 -22 2 C-4.97969543 -1.65989848 -4.97969543 -1.65989848 0 0 Z " fill="#090F15" transform="translate(726,564)"/>
<path d="M0 0 C5.63689034 1.32632714 7.93185683 5.46631765 11 10 C8 10 8 10 5.95703125 8.3203125 C5.24933594 7.59585937 4.54164063 6.87140625 3.8125 6.125 C2.73935547 5.04605469 2.73935547 5.04605469 1.64453125 3.9453125 C0 2 0 2 0 0 Z " fill="#262D37" transform="translate(607,498)"/>
<path d="M0 0 C3.37328662 3.13997573 5.61235873 6.58779931 7 11 C6.25 14.5 6.25 14.5 5 17 C4.67 17 4.34 17 4 17 C3.81824219 15.98679687 3.81824219 15.98679687 3.6328125 14.953125 C3.46523438 14.06109375 3.29765625 13.1690625 3.125 12.25 C2.96257813 11.36828125 2.80015625 10.4865625 2.6328125 9.578125 C2.10278118 7.00834917 2.10278118 7.00834917 0.9296875 4.859375 C0 3 0 3 0 0 Z " fill="#E5E8EA" transform="translate(595,636)"/>
<path d="M0 0 C-0.66 2.97 -1.32 5.94 -2 9 C-2.33 9 -2.66 9 -3 9 C-3 7.02 -3 5.04 -3 3 C-3.825 3.33 -4.65 3.66 -5.5 4 C-9.5873983 5.16782809 -12.76923344 5.1458885 -17 5 C-17 4.67 -17 4.34 -17 4 C-16.16855469 3.79503906 -15.33710937 3.59007812 -14.48046875 3.37890625 C-13.39378906 3.10949219 -12.30710937 2.84007812 -11.1875 2.5625 C-9.56908203 2.16224609 -9.56908203 2.16224609 -7.91796875 1.75390625 C-1.12953368 0 -1.12953368 0 0 0 Z " fill="#384861" transform="translate(607,388)"/>
<path d="M0 0 C0 0.33 0 0.66 0 1 C-0.75925781 1.04898438 -1.51851562 1.09796875 -2.30078125 1.1484375 C-3.29464844 1.22320313 -4.28851563 1.29796875 -5.3125 1.375 C-6.79169922 1.47941406 -6.79169922 1.47941406 -8.30078125 1.5859375 C-11.21528433 1.83865472 -11.21528433 1.83865472 -14 4 C-16.6875 4.125 -16.6875 4.125 -19 4 C-19 3.01 -19 2.02 -19 1 C-12.65758005 -0.15316726 -6.43311296 -0.09507063 0 0 Z " fill="#E2E5E8" transform="translate(165,656)"/>
<path d="M0 0 C2.29239061 0.08678763 4.5839807 0.19495273 6.875 0.3125 C8.15117188 0.37050781 9.42734375 0.42851562 10.7421875 0.48828125 C11.81726563 0.65714844 12.89234375 0.82601562 14 1 C14.66 1.99 15.32 2.98 16 4 C10.43109483 3.52013969 5.32932432 2.70084819 0 1 C0 0.67 0 0.34 0 0 Z " fill="#E7E9EC" transform="translate(638,246)"/>
<path d="M0 0 C0.33 0.66 0.66 1.32 1 2 C7.27 2 13.54 2 20 2 C20 2.33 20 2.66 20 3 C9.605 3.495 9.605 3.495 -1 4 C-0.67 2.68 -0.34 1.36 0 0 Z " fill="#01050E" transform="translate(778,732)"/>
<path d="M0 0 C0.99 0 1.98 0 3 0 C3 3.3 3 6.6 3 10 C2.01 10 1.02 10 0 10 C0 6.7 0 3.4 0 0 Z " fill="#E8EBED" transform="translate(667,693)"/>
<path d="M0 0 C0.33 0.66 0.66 1.32 1 2 C1.68449219 1.67257812 2.36898437 1.34515625 3.07421875 1.0078125 C6.48912059 -0.16848212 9.21031284 -0.19777146 12.8125 -0.125 C14.55466797 -0.09792969 14.55466797 -0.09792969 16.33203125 -0.0703125 C17.21246094 -0.04710937 18.09289062 -0.02390625 19 0 C19 0.33 19 0.66 19 1 C18.23816406 1.03738281 17.47632813 1.07476562 16.69140625 1.11328125 C10.01321999 1.53848412 4.21681834 2.50385324 -2 5 C-1.34 3.35 -0.68 1.7 0 0 Z " fill="#3A4A63" transform="translate(621,369)"/>
<path d="M0 0 C0 0.99 0 1.98 0 3 C-0.969375 2.979375 -1.93875 2.95875 -2.9375 2.9375 C-5.87465895 2.64381501 -5.87465895 2.64381501 -7 4 C-8.99958364 4.04080783 -11.00045254 4.04254356 -13 4 C-11 1 -11 1 -7.625 0.3125 C-4 0 -4 0 0 0 Z " fill="#E9ECEE" transform="translate(691,655)"/>
<path d="M0 0 C4.0042343 3.49087093 5.62671065 5.64951939 6 11 C5.01 11.33 4.02 11.66 3 12 C2.01 8.04 1.02 4.08 0 0 Z " fill="#E7EBED" transform="translate(572,645)"/>
<path d="M0 0 C0.66 0 1.32 0 2 0 C3.32229189 2.64458379 3.09677194 4.67761301 3.0625 7.625 C3.05347656 8.62789062 3.04445313 9.63078125 3.03515625 10.6640625 C3.02355469 11.43492187 3.01195312 12.20578125 3 13 C2.01 13 1.02 13 0 13 C0.12568359 11.96939453 0.12568359 11.96939453 0.25390625 10.91796875 C0.35574219 10.01691406 0.45757813 9.11585938 0.5625 8.1875 C0.66691406 7.29417969 0.77132812 6.40085937 0.87890625 5.48046875 C1.15658709 2.86624428 1.15658709 2.86624428 0 0 Z " fill="#EAECEE" transform="translate(923,651)"/>
<path d="M0 0 C4.79708091 -0.19188324 8.56133639 0.0977156 13 2 C13.33 2.66 13.66 3.32 14 4 C12.4156683 3.91231752 10.83246433 3.80412671 9.25 3.6875 C7.92742188 3.60048828 7.92742188 3.60048828 6.578125 3.51171875 C3.67696226 2.9358819 2.20774393 1.92403852 0 0 Z " fill="#E8EAED" transform="translate(912,621)"/>
<path d="M0 0 C4.3177458 0.50797009 8.03302114 1.19682779 12 3 C12 3.99 12 4.98 12 6 C11.34 6 10.68 6 10 6 C10 5.34 10 4.68 10 4 C8.9171875 4.12375 8.9171875 4.12375 7.8125 4.25 C4.16451206 3.92573441 2.65431702 2.42680413 0 0 Z " fill="#ECEDF0" transform="translate(536,732)"/>
<path d="M0 0 C0.66 0.99 1.32 1.98 2 3 C4.93597539 3.38384509 7.68027373 3.603843 10.625 3.6875 C11.82769531 3.73874023 11.82769531 3.73874023 13.0546875 3.79101562 C15.03596318 3.87356878 17.01796037 3.93845916 19 4 C19 4.33 19 4.66 19 5 C12.4 5 5.8 5 -1 5 C-0.67 3.35 -0.34 1.7 0 0 Z " fill="#1B2737" transform="translate(780,729)"/>
<path d="M0 0 C0.33 0.99 0.66 1.98 1 3 C1.66 3 2.32 3 3 3 C3.33 5.64 3.66 8.28 4 11 C3.01 11.495 3.01 11.495 2 12 C0.70756464 7.8803623 -0.26252625 4.33168317 0 0 Z " fill="#0F151F" transform="translate(234,715)"/>
<path d="M0 0 C0.99 0.33 1.98 0.66 3 1 C2.34 5.29 1.68 9.58 1 14 C0.67 14 0.34 14 0 14 C-0.19627391 12.41773035 -0.38165538 10.83410729 -0.5625 9.25 C-0.66691406 8.36828125 -0.77132812 7.4865625 -0.87890625 6.578125 C-0.99456676 4.11567549 -0.73638695 2.33461936 0 0 Z " fill="#1C2532" transform="translate(91,647)"/>
<path d="M0 0 C0.33 0 0.66 0 1 0 C1.042721 1.66611905 1.04063832 3.33382885 1 5 C0 6 0 6 -3.59765625 6.09765625 C-5.08596867 6.0909822 -6.57426432 6.07902183 -8.0625 6.0625 C-8.82111328 6.05798828 -9.57972656 6.05347656 -10.36132812 6.04882812 C-12.24091871 6.0370068 -14.12046899 6.01907078 -16 6 C-16 5.67 -16 5.34 -16 5 C-14.51886719 4.96132813 -14.51886719 4.96132813 -13.0078125 4.921875 C-11.72648438 4.86515625 -10.44515625 4.8084375 -9.125 4.75 C-7.84882812 4.70359375 -6.57265625 4.6571875 -5.2578125 4.609375 C-1.90811895 4.37444944 -1.90811895 4.37444944 -0.5546875 1.953125 C-0.37164063 1.30859375 -0.18859375 0.6640625 0 0 Z " fill="#0B141F" transform="translate(800,730)"/>
<path d="M0 0 C0.33 0.66 0.66 1.32 1 2 C-1.88211302 2.96070434 -3.69850044 3.10581883 -6.6875 3.0625 C-7.89986328 3.04896484 -7.89986328 3.04896484 -9.13671875 3.03515625 C-10.05904297 3.01775391 -10.05904297 3.01775391 -11 3 C-7.48550811 -0.37391222 -4.73940561 -0.27342725 0 0 Z " fill="#ECEFF1" transform="translate(135,714)"/>
<path d="M0 0 C0.33 0 0.66 0 1 0 C1 2.64 1 5.28 1 8 C2.65 7.67 4.3 7.34 6 7 C3.3144406 9.6855594 0.62378672 10.06049974 -3 11 C-2.01 7.37 -1.02 3.74 0 0 Z " fill="#384860" transform="translate(663,325)"/>
<path d="M0 0 C0 0.66 0 1.32 0 2 C-2.88211302 2.96070434 -4.69850044 3.10581883 -7.6875 3.0625 C-8.89986328 3.04896484 -8.89986328 3.04896484 -10.13671875 3.03515625 C-11.05904297 3.01775391 -11.05904297 3.01775391 -12 3 C-3.11538462 -1.55769231 -3.11538462 -1.55769231 0 0 Z " fill="#E9ECEF" transform="translate(569,714)"/>
<path d="M0 0 C0.99 0.33 1.98 0.66 3 1 C3.0825 1.78375 3.165 2.5675 3.25 3.375 C3.72806339 6.14749104 3.72806339 6.14749104 6.0625 7.3125 C6.701875 7.539375 7.34125 7.76625 8 8 C7.67 8.66 7.34 9.32 7 10 C1.21538462 5.69230769 1.21538462 5.69230769 0.125 2.1875 C0.08375 1.465625 0.0425 0.74375 0 0 Z " fill="#E6E9EA" transform="translate(114,706)"/>
<path d="M0 0 C3.3 0.33 6.6 0.66 10 1 C9.67 1.66 9.34 2.32 9 3 C5.37 3 1.74 3 -2 3 C-1.34 2.01 -0.68 1.02 0 0 Z " fill="#F6F8F9" transform="translate(812,692)"/>
<path d="M0 0 C1.73662334 3.22515763 2.8905928 6.51329166 4 10 C3.01 10 2.02 10 1 10 C0.63883954 8.5225254 0.28624952 7.04295325 -0.0625 5.5625 C-0.25972656 4.73878906 -0.45695312 3.91507813 -0.66015625 3.06640625 C-0.82837891 2.04353516 -0.82837891 2.04353516 -1 1 C-0.67 0.67 -0.34 0.34 0 0 Z " fill="#EEEFF1" transform="translate(313,656)"/>
<path d="M0 0 C-0.33 0.99 -0.66 1.98 -1 3 C-5.95 2.67 -10.9 2.34 -16 2 C-16 1.67 -16 1.34 -16 1 C-13.70839646 0.83246763 -11.41671509 0.66599948 -9.125 0.5 C-7.84882813 0.4071875 -6.57265625 0.314375 -5.2578125 0.21875 C-3.50763316 0.10123196 -1.75412035 0 0 0 Z " fill="#EDEFF2" transform="translate(406,314)"/>
<path d="M0 0 C2.97 0.33 5.94 0.66 9 1 C8.67 1.99 8.34 2.98 8 4 C5.36 3.67 2.72 3.34 0 3 C0 2.01 0 1.02 0 0 Z " fill="#202833" transform="translate(114,733)"/>
<path d="M0 0 C2.3129482 2.3129482 2.49580975 3.47904875 3.125 6.625 C3.29257812 7.44226563 3.46015625 8.25953125 3.6328125 9.1015625 C3.81457031 10.04128906 3.81457031 10.04128906 4 11 C3.01 10.67 2.02 10.34 1 10 C0.234375 7.96875 0.234375 7.96875 -0.25 5.5 C-0.42015625 4.6853125 -0.5903125 3.870625 -0.765625 3.03125 C-0.84296875 2.3609375 -0.9203125 1.690625 -1 1 C-0.67 0.67 -0.34 0.34 0 0 Z " fill="#EDEFF0" transform="translate(303,692)"/>
<path d="M0 0 C0.33 0 0.66 0 1 0 C1 2.31 1 4.62 1 7 C0.34 7 -0.32 7 -1 7 C-1 7.66 -1 8.32 -1 9 C-1.66 9 -2.32 9 -3 9 C-2.5020163 5.26512223 -2.12508244 3.18762365 0 0 Z " fill="#EAECEE" transform="translate(641,647)"/>
<path d="M0 0 C0.66 0 1.32 0 2 0 C1.25 6.625 1.25 6.625 -1 10 C-2.23076923 4.58461538 -2.23076923 4.58461538 -1.0625 1.625 C-0.5365625 0.820625 -0.5365625 0.820625 0 0 Z " fill="#EBEEF0" transform="translate(333,650)"/>
<path d="M0 0 C6.64615385 1.47692308 6.64615385 1.47692308 8.4375 4.125 C8.7159375 5.053125 8.7159375 5.053125 9 6 C4.9666466 6 3.16482462 4.39120082 0 2 C0 1.34 0 0.68 0 0 Z " fill="#ECEEEF" transform="translate(687,264)"/>
<path d="M0 0 C2.29013653 3.4352048 2.17842973 4.985331 2 9 C1.01 9.495 1.01 9.495 0 10 C-1.125 2.25 -1.125 2.25 0 0 Z " fill="#E9ECEE" transform="translate(865,726)"/>
<path d="M0 0 C1.88391785 3.26545761 2.49287967 6.28111761 3 10 C2.34 9.67 1.68 9.34 1 9 C1 8.34 1 7.68 1 7 C0.01 7.33 -0.98 7.66 -2 8 C-1.34 5.36 -0.68 2.72 0 0 Z " fill="#D3D6DA" transform="translate(821,650)"/>
<path d="M0 0 C4.62 0 9.24 0 14 0 C13.67 0.99 13.34 1.98 13 3 C8.71 2.34 4.42 1.68 0 1 C0 0.67 0 0.34 0 0 Z " fill="#D7DCE1" transform="translate(701,567)"/>
<path d="M0 0 C0.99 0 1.98 0 3 0 C3 2.64 3 5.28 3 8 C2.34 8 1.68 8 1 8 C-0.35439668 5.29120665 -0.06501451 2.99066732 0 0 Z " fill="#1F2735" transform="translate(252,467)"/>
<path d="M0 0 C1.9955516 3.99110319 2.19546065 5.69986566 2 10 C1.01 9.67 0.02 9.34 -1 9 C-0.67 6.03 -0.34 3.06 0 0 Z " fill="#222934" transform="translate(256,440)"/>
<path d="M0 0 C1.15941038 3.47823115 0.70820884 5.45895578 0 9 C-0.99 8.67 -1.98 8.34 -3 8 C-2.74438677 5.6568787 -2.40729228 3.32156597 -2 1 C-1.34 0.67 -0.68 0.34 0 0 Z " fill="#E7EAED" transform="translate(260,417)"/>
<path d="M0 0 C0.66 0 1.32 0 2 0 C1.67 2.64 1.34 5.28 1 8 C0.01 8 -0.98 8 -2 8 C-1.34 5.36 -0.68 2.72 0 0 Z " fill="#111722" transform="translate(279,350)"/>
<path d="M0 0 C-0.33 0.99 -0.66 1.98 -1 3 C-3.64 3 -6.28 3 -9 3 C-6.40821726 0.40821726 -3.54324677 -1.77162338 0 0 Z " fill="#111720" transform="translate(665,715)"/>
<path d="M0 0 C0.99 0 1.98 0 3 0 C2.34 3.3 1.68 6.6 1 10 C-1.17766075 5.64467851 -1.03039555 4.53374042 0 0 Z " fill="#1D2631" transform="translate(793,675)"/>
<path d="M0 0 C2.76223278 2.76223278 2.57856291 5.20706617 3 9 C2.01 9 1.02 9 0 9 C-1.125 3.375 -1.125 3.375 0 0 Z " fill="#ECEFF1" transform="translate(843,647)"/>
<path d="M0 0 C0.99 0 1.98 0 3 0 C3.33 2.31 3.66 4.62 4 7 C3.01 7 2.02 7 1 7 C0.67 4.69 0.34 2.38 0 0 Z " fill="#1F2733" transform="translate(758,418)"/>
<path d="M0 0 C0 2.79784711 -0.37195775 4.9790678 -1 7.6875 C-1.185625 8.49574219 -1.37125 9.30398438 -1.5625 10.13671875 C-1.706875 10.75160156 -1.85125 11.36648438 -2 12 C-2.33 12 -2.66 12 -3 12 C-3.125 5.25 -3.125 5.25 -2 3 C-2.66 2.67 -3.32 2.34 -4 2 C-2.68 1.34 -1.36 0.68 0 0 Z " fill="#394962" transform="translate(648,349)"/>
<path d="M0 0 C0.68707555 2.49064888 1 4.37886292 1 7 C0.34 7 -0.32 7 -1 7 C-0.67 8.32 -0.34 9.64 0 11 C-0.99 11.495 -0.99 11.495 -2 12 C-3.15957207 8.52128379 -2.77456651 7.65780355 -1.5625 4.3125 C-1.13130859 3.10013672 -1.13130859 3.10013672 -0.69140625 1.86328125 C-0.46324219 1.24839844 -0.23507812 0.63351562 0 0 Z " fill="#E9ECEE" transform="translate(335,707)"/>
<path d="M0 0 C-0.33 0.99 -0.66 1.98 -1 3 C-3.31 3.33 -5.62 3.66 -8 4 C-7.67 3.01 -7.34 2.02 -7 1 C-4.52260646 0.09162237 -2.66420516 0 0 0 Z " fill="#E7EAED" transform="translate(724,565)"/>
<path d="M0 0 C0.625 1.8125 0.625 1.8125 1 4 C0.01 5.485 0.01 5.485 -1 7 C-1.66 7 -2.32 7 -3 7 C-2.625 4.0625 -2.625 4.0625 -2 1 C-1.34 0.67 -0.68 0.34 0 0 Z " fill="#EDF0F2" transform="translate(272,369)"/>
<path d="M0 0 C0.66 0 1.32 0 2 0 C1.1875 3.4375 1.1875 3.4375 0 7 C-0.99 7.33 -1.98 7.66 -3 8 C-2.45276317 4.62537285 -1.9451 2.91765 0 0 Z " fill="#ECEFF1" transform="translate(340,633)"/>
<path d="M0 0 C0.66 0 1.32 0 2 0 C5 5.75 5 5.75 5 8 C4.34 8 3.68 8 3 8 C0 2.25 0 2.25 0 0 Z " fill="#EAECEE" transform="translate(457,633)"/>
<path d="M0 0 C-1.33333333 0.66666667 -2.66666667 1.33333333 -4 2 C-4.70125 2.37125 -5.4025 2.7425 -6.125 3.125 C-8 4 -8 4 -10 4 C-10 3.34 -10 2.68 -10 2 C-6.49223216 0.39644899 -3.85645121 -0.22036864 0 0 Z " fill="#CDD1D6" transform="translate(538,216)"/>
<path d="M0 0 C1.98 0 3.96 0 6 0 C6.33 0.99 6.66 1.98 7 3 C4.36 3 1.72 3 -1 3 C-0.67 2.01 -0.34 1.02 0 0 Z " fill="#1D2735" transform="translate(534,193)"/>
</svg>
